<?xml version="1.0" encoding="UTF-8" standalone="no"?>
<!DOCTYPE svg PUBLIC "-//W3C//DTD SVG 1.1//EN"
 "http://www.w3.org/Graphics/SVG/1.1/DTD/svg11.dtd">
<!-- Generated by graphviz version 14.1.3 (20260303.0454)
 -->
<!-- Title: folder_652 Pages: 1 -->
<svg width="1006pt" height="1397pt"
 viewBox="0.00 0.00 1006.00 1397.00" xmlns="http://www.w3.org/2000/svg" xmlns:xlink="http://www.w3.org/1999/xlink">
<g id="graph0" class="graph" transform="scale(1 1) rotate(0) translate(4 1393)">
<title>folder_652</title>
<polygon fill="white" stroke="none" points="-4,4 -4,-1393 1001.5,-1393 1001.5,4 -4,4"/>
<text xml:space="preserve" text-anchor="middle" x="498.75" y="-1367.9" font-family="Times New Roman,serif" font-size="18.00">652 | tools/codex/worktrees/C_features/apps/keystone/components/pitch</text>
<!-- n_aee4a7dd046504dd48ac5f812408435f38027449 -->
<g id="node1" class="node">
<title>n_aee4a7dd046504dd48ac5f812408435f38027449</title>
<path fill="none" stroke="black" d="M641,-522C641,-522 356.5,-522 356.5,-522 350.5,-522 344.5,-516 344.5,-510 344.5,-510 344.5,-498 344.5,-498 344.5,-492 350.5,-486 356.5,-486 356.5,-486 641,-486 641,-486 647,-486 653,-492 653,-498 653,-498 653,-510 653,-510 653,-516 647,-522 641,-522"/>
<text xml:space="preserve" text-anchor="middle" x="498.75" y="-500.5" font-family="Arial" font-size="10.00">tools/codex/worktrees/C_features/apps/keystone/components/pit...</text>
</g>
<!-- n_c1e8c801b16bc57a3e8617248a636668e1f281ef -->
<g id="node31" class="node">
<title>n_c1e8c801b16bc57a3e8617248a636668e1f281ef</title>
<ellipse fill="none" stroke="black" cx="843.25" cy="-504" rx="139.51" ry="18"/>
<text xml:space="preserve" text-anchor="middle" x="843.25" y="-500.5" font-family="Arial" font-size="10.00">n_c1e8c801b16bc57a3e8617248a636668e1f281ef</text>
</g>
<!-- n_aee4a7dd046504dd48ac5f812408435f38027449&#45;&gt;n_c1e8c801b16bc57a3e8617248a636668e1f281ef -->
<g id="edge1" class="edge">
<title>n_aee4a7dd046504dd48ac5f812408435f38027449&#45;&gt;n_c1e8c801b16bc57a3e8617248a636668e1f281ef</title>
<path fill="none" stroke="black" d="M653.47,-504C666.33,-504 679.32,-504 692.15,-504"/>
<polygon fill="black" stroke="black" points="691.87,-507.5 701.87,-504 691.87,-500.5 691.87,-507.5"/>
</g>
<!-- n_45504da7038dd5670b3e5e816725b7f61009a01b -->
<g id="node32" class="node">
<title>n_45504da7038dd5670b3e5e816725b7f61009a01b</title>
<ellipse fill="none" stroke="black" cx="843.25" cy="-288" rx="140.86" ry="18"/>
<text xml:space="preserve" text-anchor="middle" x="843.25" y="-284.5" font-family="Arial" font-size="10.00">n_45504da7038dd5670b3e5e816725b7f61009a01b</text>
</g>
<!-- n_aee4a7dd046504dd48ac5f812408435f38027449&#45;&gt;n_45504da7038dd5670b3e5e816725b7f61009a01b -->
<g id="edge2" class="edge">
<title>n_aee4a7dd046504dd48ac5f812408435f38027449&#45;&gt;n_45504da7038dd5670b3e5e816725b7f61009a01b</title>
<path fill="none" stroke="black" d="M642.38,-485.64C646.13,-483.05 649.68,-480.17 653,-477 706.3,-426.01 635.7,-365.99 689,-315 694.57,-309.67 700.81,-305.19 707.49,-301.44"/>
<polygon fill="black" stroke="black" points="708.81,-304.69 716.22,-297.12 705.71,-298.42 708.81,-304.69"/>
</g>
<!-- n_28495de614789726523aeae6d29ac19b0f8791e2 -->
<g id="node2" class="node">
<title>n_28495de614789726523aeae6d29ac19b0f8791e2</title>
<path fill="none" stroke="black" d="M641,-468C641,-468 356.5,-468 356.5,-468 350.5,-468 344.5,-462 344.5,-456 344.5,-456 344.5,-444 344.5,-444 344.5,-438 350.5,-432 356.5,-432 356.5,-432 641,-432 641,-432 647,-432 653,-438 653,-444 653,-444 653,-456 653,-456 653,-462 647,-468 641,-468"/>
<text xml:space="preserve" text-anchor="middle" x="498.75" y="-446.5" font-family="Arial" font-size="10.00">tools/codex/worktrees/C_features/apps/keystone/components/pit...</text>
</g>
<!-- n_28495de614789726523aeae6d29ac19b0f8791e2&#45;&gt;n_45504da7038dd5670b3e5e816725b7f61009a01b -->
<g id="edge4" class="edge">
<title>n_28495de614789726523aeae6d29ac19b0f8791e2&#45;&gt;n_45504da7038dd5670b3e5e816725b7f61009a01b</title>
<path fill="none" stroke="black" d="M641.29,-431.62C645.4,-429.04 649.32,-426.18 653,-423 691.31,-389.95 650.69,-348.05 689,-315 695.19,-309.66 702.05,-305.21 709.35,-301.51"/>
<polygon fill="black" stroke="black" points="710.49,-304.83 718.16,-297.53 707.61,-298.45 710.49,-304.83"/>
</g>
<!-- n_f8dcc9f4b9da68117d9d22a6a63f52fdc33908dd -->
<g id="node33" class="node">
<title>n_f8dcc9f4b9da68117d9d22a6a63f52fdc33908dd</title>
<ellipse fill="none" stroke="black" cx="843.25" cy="-450" rx="136.35" ry="18"/>
<text xml:space="preserve" text-anchor="middle" x="843.25" y="-446.5" font-family="Arial" font-size="10.00">n_f8dcc9f4b9da68117d9d22a6a63f52fdc33908dd</text>
</g>
<!-- n_28495de614789726523aeae6d29ac19b0f8791e2&#45;&gt;n_f8dcc9f4b9da68117d9d22a6a63f52fdc33908dd -->
<g id="edge3" class="edge">
<title>n_28495de614789726523aeae6d29ac19b0f8791e2&#45;&gt;n_f8dcc9f4b9da68117d9d22a6a63f52fdc33908dd</title>
<path fill="none" stroke="black" d="M653.47,-450C667.29,-450 681.27,-450 695.04,-450"/>
<polygon fill="black" stroke="black" points="695.03,-453.5 705.03,-450 695.03,-446.5 695.03,-453.5"/>
</g>
<!-- n_5979790c82435a2bc5bc57b3437c383bf7e5163a -->
<g id="node3" class="node">
<title>n_5979790c82435a2bc5bc57b3437c383bf7e5163a</title>
<path fill="none" stroke="black" d="M641,-414C641,-414 356.5,-414 356.5,-414 350.5,-414 344.5,-408 344.5,-402 344.5,-402 344.5,-390 344.5,-390 344.5,-384 350.5,-378 356.5,-378 356.5,-378 641,-378 641,-378 647,-378 653,-384 653,-390 653,-390 653,-402 653,-402 653,-408 647,-414 641,-414"/>
<text xml:space="preserve" text-anchor="middle" x="498.75" y="-392.5" font-family="Arial" font-size="10.00">tools/codex/worktrees/C_features/apps/keystone/components/pit...</text>
</g>
<!-- n_5979790c82435a2bc5bc57b3437c383bf7e5163a&#45;&gt;n_45504da7038dd5670b3e5e816725b7f61009a01b -->
<g id="edge6" class="edge">
<title>n_5979790c82435a2bc5bc57b3437c383bf7e5163a&#45;&gt;n_45504da7038dd5670b3e5e816725b7f61009a01b</title>
<path fill="none" stroke="black" d="M637.7,-377.53C643.01,-375.01 648.14,-372.18 653,-369 677.15,-353.23 664.85,-330.77 689,-315 696.97,-309.8 705.64,-305.51 714.68,-302"/>
<polygon fill="black" stroke="black" points="715.74,-305.34 724.01,-298.71 713.41,-298.73 715.74,-305.34"/>
</g>
<!-- n_38e04763333ca566532d69ff7970561691f8056b -->
<g id="node34" class="node">
<title>n_38e04763333ca566532d69ff7970561691f8056b</title>
<ellipse fill="none" stroke="black" cx="843.25" cy="-396" rx="137.71" ry="18"/>
<text xml:space="preserve" text-anchor="middle" x="843.25" y="-392.5" font-family="Arial" font-size="10.00">n_38e04763333ca566532d69ff7970561691f8056b</text>
</g>
<!-- n_5979790c82435a2bc5bc57b3437c383bf7e5163a&#45;&gt;n_38e04763333ca566532d69ff7970561691f8056b -->
<g id="edge5" class="edge">
<title>n_5979790c82435a2bc5bc57b3437c383bf7e5163a&#45;&gt;n_38e04763333ca566532d69ff7970561691f8056b</title>
<path fill="none" stroke="black" d="M653.47,-396C666.94,-396 680.57,-396 694,-396"/>
<polygon fill="black" stroke="black" points="693.71,-399.5 703.71,-396 693.71,-392.5 693.71,-399.5"/>
</g>
<!-- n_4bcdd1c9423414648efdc94571b5c14f6db122b9 -->
<g id="node4" class="node">
<title>n_4bcdd1c9423414648efdc94571b5c14f6db122b9</title>
<path fill="none" stroke="black" d="M296.5,-171C296.5,-171 12,-171 12,-171 6,-171 0,-165 0,-159 0,-159 0,-147 0,-147 0,-141 6,-135 12,-135 12,-135 296.5,-135 296.5,-135 302.5,-135 308.5,-141 308.5,-147 308.5,-147 308.5,-159 308.5,-159 308.5,-165 302.5,-171 296.5,-171"/>
<text xml:space="preserve" text-anchor="middle" x="154.25" y="-149.5" font-family="Arial" font-size="10.00">tools/codex/worktrees/C_features/apps/keystone/components/pit...</text>
</g>
<!-- n_eb3ac5b16275230e231060acd70aa306ffc2ad95 -->
<g id="node5" class="node">
<title>n_eb3ac5b16275230e231060acd70aa306ffc2ad95</title>
<path fill="none" stroke="black" d="M641,-306C641,-306 356.5,-306 356.5,-306 350.5,-306 344.5,-300 344.5,-294 344.5,-294 344.5,-282 344.5,-282 344.5,-276 350.5,-270 356.5,-270 356.5,-270 641,-270 641,-270 647,-270 653,-276 653,-282 653,-282 653,-294 653,-294 653,-300 647,-306 641,-306"/>
<text xml:space="preserve" text-anchor="middle" x="498.75" y="-284.5" font-family="Arial" font-size="10.00">tools/codex/worktrees/C_features/apps/keystone/components/pit...</text>
</g>
<!-- n_4bcdd1c9423414648efdc94571b5c14f6db122b9&#45;&gt;n_eb3ac5b16275230e231060acd70aa306ffc2ad95 -->
<g id="edge8" class="edge">
<title>n_4bcdd1c9423414648efdc94571b5c14f6db122b9&#45;&gt;n_eb3ac5b16275230e231060acd70aa306ffc2ad95</title>
<path fill="none" stroke="black" d="M180.8,-171.42C215.91,-195.82 281.88,-238.39 344.5,-261 349.92,-262.96 355.5,-264.77 361.18,-266.46"/>
<polygon fill="black" stroke="black" points="360.16,-269.81 370.74,-269.15 362.05,-263.07 360.16,-269.81"/>
</g>
<!-- n_5f7ab05654590d61399ea68cfa94c8680287d209 -->
<g id="node35" class="node">
<title>n_5f7ab05654590d61399ea68cfa94c8680287d209</title>
<ellipse fill="none" stroke="black" cx="498.75" cy="-18" rx="139.51" ry="18"/>
<text xml:space="preserve" text-anchor="middle" x="498.75" y="-14.5" font-family="Arial" font-size="10.00">n_5f7ab05654590d61399ea68cfa94c8680287d209</text>
</g>
<!-- n_4bcdd1c9423414648efdc94571b5c14f6db122b9&#45;&gt;n_5f7ab05654590d61399ea68cfa94c8680287d209 -->
<g id="edge7" class="edge">
<title>n_4bcdd1c9423414648efdc94571b5c14f6db122b9&#45;&gt;n_5f7ab05654590d61399ea68cfa94c8680287d209</title>
<path fill="none" stroke="black" d="M180.8,-134.58C215.91,-110.18 281.88,-67.61 344.5,-45 357.76,-40.21 371.99,-36.25 386.23,-32.99"/>
<polygon fill="black" stroke="black" points="386.61,-36.49 395.63,-30.94 385.12,-29.65 386.61,-36.49"/>
</g>
<!-- n_eb3ac5b16275230e231060acd70aa306ffc2ad95&#45;&gt;n_45504da7038dd5670b3e5e816725b7f61009a01b -->
<g id="edge9" class="edge">
<title>n_eb3ac5b16275230e231060acd70aa306ffc2ad95&#45;&gt;n_45504da7038dd5670b3e5e816725b7f61009a01b</title>
<path fill="none" stroke="black" d="M653.47,-288C665.86,-288 678.37,-288 690.75,-288"/>
<polygon fill="black" stroke="black" points="690.55,-291.5 700.55,-288 690.55,-284.5 690.55,-291.5"/>
</g>
<!-- n_e8c38f6f07d2d91f1f033437999ac10584006951 -->
<g id="node6" class="node">
<title>n_e8c38f6f07d2d91f1f033437999ac10584006951</title>
<path fill="none" stroke="black" d="M296.5,-576C296.5,-576 12,-576 12,-576 6,-576 0,-570 0,-564 0,-564 0,-552 0,-552 0,-546 6,-540 12,-540 12,-540 296.5,-540 296.5,-540 302.5,-540 308.5,-546 308.5,-552 308.5,-552 308.5,-564 308.5,-564 308.5,-570 302.5,-576 296.5,-576"/>
<text xml:space="preserve" text-anchor="middle" x="154.25" y="-554.5" font-family="Arial" font-size="10.00">tools/codex/worktrees/C_features/apps/keystone/components/pit...</text>
</g>
<!-- n_28696a11af3560656f8e402f9e98e2fb57befe66 -->
<g id="node36" class="node">
<title>n_28696a11af3560656f8e402f9e98e2fb57befe66</title>
<ellipse fill="none" stroke="black" cx="498.75" cy="-558" rx="135" ry="18"/>
<text xml:space="preserve" text-anchor="middle" x="498.75" y="-554.5" font-family="Arial" font-size="10.00">n_28696a11af3560656f8e402f9e98e2fb57befe66</text>
</g>
<!-- n_e8c38f6f07d2d91f1f033437999ac10584006951&#45;&gt;n_28696a11af3560656f8e402f9e98e2fb57befe66 -->
<g id="edge10" class="edge">
<title>n_e8c38f6f07d2d91f1f033437999ac10584006951&#45;&gt;n_28696a11af3560656f8e402f9e98e2fb57befe66</title>
<path fill="none" stroke="black" d="M308.97,-558C323.28,-558 337.76,-558 352,-558"/>
<polygon fill="black" stroke="black" points="351.84,-561.5 361.84,-558 351.84,-554.5 351.84,-561.5"/>
</g>
<!-- n_9ef8cfd0b7bff44bb4993fa4c5ac724a477ad106 -->
<g id="node7" class="node">
<title>n_9ef8cfd0b7bff44bb4993fa4c5ac724a477ad106</title>
<path fill="none" stroke="black" d="M641,-360C641,-360 356.5,-360 356.5,-360 350.5,-360 344.5,-354 344.5,-348 344.5,-348 344.5,-336 344.5,-336 344.5,-330 350.5,-324 356.5,-324 356.5,-324 641,-324 641,-324 647,-324 653,-330 653,-336 653,-336 653,-348 653,-348 653,-354 647,-360 641,-360"/>
<text xml:space="preserve" text-anchor="middle" x="498.75" y="-338.5" font-family="Arial" font-size="10.00">tools/codex/worktrees/C_features/apps/keystone/components/pit...</text>
</g>
<!-- n_9ef8cfd0b7bff44bb4993fa4c5ac724a477ad106&#45;&gt;n_45504da7038dd5670b3e5e816725b7f61009a01b -->
<g id="edge12" class="edge">
<title>n_9ef8cfd0b7bff44bb4993fa4c5ac724a477ad106&#45;&gt;n_45504da7038dd5670b3e5e816725b7f61009a01b</title>
<path fill="none" stroke="black" d="M616.66,-323.57C657.23,-317.17 702.33,-310.06 741.48,-303.89"/>
<polygon fill="black" stroke="black" points="741.8,-307.38 751.13,-302.37 740.7,-300.47 741.8,-307.38"/>
</g>
<!-- n_171950862e09aa83fa28920d7e3aee1437832a7e -->
<g id="node37" class="node">
<title>n_171950862e09aa83fa28920d7e3aee1437832a7e</title>
<ellipse fill="none" stroke="black" cx="843.25" cy="-342" rx="140.86" ry="18"/>
<text xml:space="preserve" text-anchor="middle" x="843.25" y="-338.5" font-family="Arial" font-size="10.00">n_171950862e09aa83fa28920d7e3aee1437832a7e</text>
</g>
<!-- n_9ef8cfd0b7bff44bb4993fa4c5ac724a477ad106&#45;&gt;n_171950862e09aa83fa28920d7e3aee1437832a7e -->
<g id="edge11" class="edge">
<title>n_9ef8cfd0b7bff44bb4993fa4c5ac724a477ad106&#45;&gt;n_171950862e09aa83fa28920d7e3aee1437832a7e</title>
<path fill="none" stroke="black" d="M653.47,-342C665.86,-342 678.37,-342 690.75,-342"/>
<polygon fill="black" stroke="black" points="690.55,-345.5 700.55,-342 690.55,-338.5 690.55,-345.5"/>
</g>
<!-- n_69456adef6e43c11614e7c94e8705a773da5a848 -->
<g id="node8" class="node">
<title>n_69456adef6e43c11614e7c94e8705a773da5a848</title>
<path fill="none" stroke="black" d="M641,-252C641,-252 356.5,-252 356.5,-252 350.5,-252 344.5,-246 344.5,-240 344.5,-240 344.5,-228 344.5,-228 344.5,-222 350.5,-216 356.5,-216 356.5,-216 641,-216 641,-216 647,-216 653,-222 653,-228 653,-228 653,-240 653,-240 653,-246 647,-252 641,-252"/>
<text xml:space="preserve" text-anchor="middle" x="498.75" y="-230.5" font-family="Arial" font-size="10.00">tools/codex/worktrees/C_features/apps/keystone/components/pit...</text>
</g>
<!-- n_69456adef6e43c11614e7c94e8705a773da5a848&#45;&gt;n_45504da7038dd5670b3e5e816725b7f61009a01b -->
<g id="edge14" class="edge">
<title>n_69456adef6e43c11614e7c94e8705a773da5a848&#45;&gt;n_45504da7038dd5670b3e5e816725b7f61009a01b</title>
<path fill="none" stroke="black" d="M616.66,-252.43C657.23,-258.83 702.33,-265.94 741.48,-272.11"/>
<polygon fill="black" stroke="black" points="740.7,-275.53 751.13,-273.63 741.8,-268.62 740.7,-275.53"/>
</g>
<!-- n_4dfaf95c13048c04a0d9cf6fc065e9c93285b4e8 -->
<g id="node38" class="node">
<title>n_4dfaf95c13048c04a0d9cf6fc065e9c93285b4e8</title>
<ellipse fill="none" stroke="black" cx="843.25" cy="-234" rx="136.8" ry="18"/>
<text xml:space="preserve" text-anchor="middle" x="843.25" y="-230.5" font-family="Arial" font-size="10.00">n_4dfaf95c13048c04a0d9cf6fc065e9c93285b4e8</text>
</g>
<!-- n_69456adef6e43c11614e7c94e8705a773da5a848&#45;&gt;n_4dfaf95c13048c04a0d9cf6fc065e9c93285b4e8 -->
<g id="edge13" class="edge">
<title>n_69456adef6e43c11614e7c94e8705a773da5a848&#45;&gt;n_4dfaf95c13048c04a0d9cf6fc065e9c93285b4e8</title>
<path fill="none" stroke="black" d="M653.47,-234C667.15,-234 680.99,-234 694.62,-234"/>
<polygon fill="black" stroke="black" points="694.5,-237.5 704.5,-234 694.5,-230.5 694.5,-237.5"/>
</g>
<!-- n_046c5b7c42b000aa69d4fce8fb1e6bbe74cd450a -->
<g id="node9" class="node">
<title>n_046c5b7c42b000aa69d4fce8fb1e6bbe74cd450a</title>
<path fill="none" stroke="black" d="M641,-198C641,-198 356.5,-198 356.5,-198 350.5,-198 344.5,-192 344.5,-186 344.5,-186 344.5,-174 344.5,-174 344.5,-168 350.5,-162 356.5,-162 356.5,-162 641,-162 641,-162 647,-162 653,-168 653,-174 653,-174 653,-186 653,-186 653,-192 647,-198 641,-198"/>
<text xml:space="preserve" text-anchor="middle" x="498.75" y="-176.5" font-family="Arial" font-size="10.00">tools/codex/worktrees/C_features/apps/keystone/components/pit...</text>
</g>
<!-- n_046c5b7c42b000aa69d4fce8fb1e6bbe74cd450a&#45;&gt;n_45504da7038dd5670b3e5e816725b7f61009a01b -->
<g id="edge16" class="edge">
<title>n_046c5b7c42b000aa69d4fce8fb1e6bbe74cd450a&#45;&gt;n_45504da7038dd5670b3e5e816725b7f61009a01b</title>
<path fill="none" stroke="black" d="M637.7,-198.47C643.01,-200.99 648.14,-203.82 653,-207 677.15,-222.77 664.85,-245.23 689,-261 696.97,-266.2 705.64,-270.49 714.68,-274"/>
<polygon fill="black" stroke="black" points="713.41,-277.27 724.01,-277.29 715.74,-270.66 713.41,-277.27"/>
</g>
<!-- n_23816afe3e8c1384bd3a22f6ff19c28ce0f47bda -->
<g id="node39" class="node">
<title>n_23816afe3e8c1384bd3a22f6ff19c28ce0f47bda</title>
<ellipse fill="none" stroke="black" cx="843.25" cy="-180" rx="135" ry="18"/>
<text xml:space="preserve" text-anchor="middle" x="843.25" y="-176.5" font-family="Arial" font-size="10.00">n_23816afe3e8c1384bd3a22f6ff19c28ce0f47bda</text>
</g>
<!-- n_046c5b7c42b000aa69d4fce8fb1e6bbe74cd450a&#45;&gt;n_23816afe3e8c1384bd3a22f6ff19c28ce0f47bda -->
<g id="edge15" class="edge">
<title>n_046c5b7c42b000aa69d4fce8fb1e6bbe74cd450a&#45;&gt;n_23816afe3e8c1384bd3a22f6ff19c28ce0f47bda</title>
<path fill="none" stroke="black" d="M653.47,-180C667.78,-180 682.26,-180 696.5,-180"/>
<polygon fill="black" stroke="black" points="696.34,-183.5 706.34,-180 696.34,-176.5 696.34,-183.5"/>
</g>
<!-- n_76e905870f5a5d9a1509b762ef7a07c907d588c6 -->
<g id="node10" class="node">
<title>n_76e905870f5a5d9a1509b762ef7a07c907d588c6</title>
<path fill="none" stroke="black" d="M641,-144C641,-144 356.5,-144 356.5,-144 350.5,-144 344.5,-138 344.5,-132 344.5,-132 344.5,-120 344.5,-120 344.5,-114 350.5,-108 356.5,-108 356.5,-108 641,-108 641,-108 647,-108 653,-114 653,-120 653,-120 653,-132 653,-132 653,-138 647,-144 641,-144"/>
<text xml:space="preserve" text-anchor="middle" x="498.75" y="-122.5" font-family="Arial" font-size="10.00">tools/codex/worktrees/C_features/apps/keystone/components/pit...</text>
</g>
<!-- n_76e905870f5a5d9a1509b762ef7a07c907d588c6&#45;&gt;n_45504da7038dd5670b3e5e816725b7f61009a01b -->
<g id="edge18" class="edge">
<title>n_76e905870f5a5d9a1509b762ef7a07c907d588c6&#45;&gt;n_45504da7038dd5670b3e5e816725b7f61009a01b</title>
<path fill="none" stroke="black" d="M641.29,-144.38C645.4,-146.96 649.32,-149.82 653,-153 691.31,-186.05 650.69,-227.95 689,-261 695.19,-266.34 702.05,-270.79 709.35,-274.49"/>
<polygon fill="black" stroke="black" points="707.61,-277.55 718.16,-278.47 710.49,-271.17 707.61,-277.55"/>
</g>
<!-- n_f7dceec45923532d790155389a2cf3b956a21ec8 -->
<g id="node40" class="node">
<title>n_f7dceec45923532d790155389a2cf3b956a21ec8</title>
<ellipse fill="none" stroke="black" cx="843.25" cy="-126" rx="139.51" ry="18"/>
<text xml:space="preserve" text-anchor="middle" x="843.25" y="-122.5" font-family="Arial" font-size="10.00">n_f7dceec45923532d790155389a2cf3b956a21ec8</text>
</g>
<!-- n_76e905870f5a5d9a1509b762ef7a07c907d588c6&#45;&gt;n_f7dceec45923532d790155389a2cf3b956a21ec8 -->
<g id="edge17" class="edge">
<title>n_76e905870f5a5d9a1509b762ef7a07c907d588c6&#45;&gt;n_f7dceec45923532d790155389a2cf3b956a21ec8</title>
<path fill="none" stroke="black" d="M653.47,-126C666.33,-126 679.32,-126 692.15,-126"/>
<polygon fill="black" stroke="black" points="691.87,-129.5 701.87,-126 691.87,-122.5 691.87,-129.5"/>
</g>
<!-- n_e0e026754df6be00980078cee85ca4ba01d1d556 -->
<g id="node11" class="node">
<title>n_e0e026754df6be00980078cee85ca4ba01d1d556</title>
<path fill="none" stroke="black" d="M641,-90C641,-90 356.5,-90 356.5,-90 350.5,-90 344.5,-84 344.5,-78 344.5,-78 344.5,-66 344.5,-66 344.5,-60 350.5,-54 356.5,-54 356.5,-54 641,-54 641,-54 647,-54 653,-60 653,-66 653,-66 653,-78 653,-78 653,-84 647,-90 641,-90"/>
<text xml:space="preserve" text-anchor="middle" x="498.75" y="-68.5" font-family="Arial" font-size="10.00">tools/codex/worktrees/C_features/apps/keystone/components/pit...</text>
</g>
<!-- n_e0e026754df6be00980078cee85ca4ba01d1d556&#45;&gt;n_45504da7038dd5670b3e5e816725b7f61009a01b -->
<g id="edge20" class="edge">
<title>n_e0e026754df6be00980078cee85ca4ba01d1d556&#45;&gt;n_45504da7038dd5670b3e5e816725b7f61009a01b</title>
<path fill="none" stroke="black" d="M642.38,-90.36C646.13,-92.95 649.68,-95.83 653,-99 706.3,-149.99 635.7,-210.01 689,-261 694.57,-266.33 700.81,-270.81 707.49,-274.56"/>
<polygon fill="black" stroke="black" points="705.71,-277.58 716.22,-278.88 708.81,-271.31 705.71,-277.58"/>
</g>
<!-- n_2cee474deafeaa26c5787523852f1a267589c875 -->
<g id="node41" class="node">
<title>n_2cee474deafeaa26c5787523852f1a267589c875</title>
<ellipse fill="none" stroke="black" cx="843.25" cy="-72" rx="139.51" ry="18"/>
<text xml:space="preserve" text-anchor="middle" x="843.25" y="-68.5" font-family="Arial" font-size="10.00">n_2cee474deafeaa26c5787523852f1a267589c875</text>
</g>
<!-- n_e0e026754df6be00980078cee85ca4ba01d1d556&#45;&gt;n_2cee474deafeaa26c5787523852f1a267589c875 -->
<g id="edge19" class="edge">
<title>n_e0e026754df6be00980078cee85ca4ba01d1d556&#45;&gt;n_2cee474deafeaa26c5787523852f1a267589c875</title>
<path fill="none" stroke="black" d="M653.47,-72C666.33,-72 679.32,-72 692.15,-72"/>
<polygon fill="black" stroke="black" points="691.87,-75.5 701.87,-72 691.87,-68.5 691.87,-75.5"/>
</g>
<!-- n_c8aac05e4a5e87c766159dd75a0d0ce77bb0522d -->
<g id="node12" class="node">
<title>n_c8aac05e4a5e87c766159dd75a0d0ce77bb0522d</title>
<path fill="none" stroke="black" d="M641,-1360C641,-1360 356.5,-1360 356.5,-1360 350.5,-1360 344.5,-1354 344.5,-1348 344.5,-1348 344.5,-1336 344.5,-1336 344.5,-1330 350.5,-1324 356.5,-1324 356.5,-1324 641,-1324 641,-1324 647,-1324 653,-1330 653,-1336 653,-1336 653,-1348 653,-1348 653,-1354 647,-1360 641,-1360"/>
<text xml:space="preserve" text-anchor="middle" x="498.75" y="-1338.5" font-family="Arial" font-size="10.00">tools/codex/worktrees/C_features/apps/keystone/components/pit...</text>
</g>
<!-- n_108a2f18b3047ff7ca8caf87037962ef068357c4 -->
<g id="node13" class="node">
<title>n_108a2f18b3047ff7ca8caf87037962ef068357c4</title>
<path fill="none" stroke="black" d="M641,-814C641,-814 356.5,-814 356.5,-814 350.5,-814 344.5,-808 344.5,-802 344.5,-802 344.5,-790 344.5,-790 344.5,-784 350.5,-778 356.5,-778 356.5,-778 641,-778 641,-778 647,-778 653,-784 653,-790 653,-790 653,-802 653,-802 653,-808 647,-814 641,-814"/>
<text xml:space="preserve" text-anchor="middle" x="498.75" y="-792.5" font-family="Arial" font-size="10.00">tools/codex/worktrees/C_features/apps/keystone/components/pit...</text>
</g>
<!-- n_e04c0c5bdef09b1619b33a451a79cb8bdf4ad63d -->
<g id="node14" class="node">
<title>n_e04c0c5bdef09b1619b33a451a79cb8bdf4ad63d</title>
<path fill="none" stroke="black" d="M641,-1014C641,-1014 356.5,-1014 356.5,-1014 350.5,-1014 344.5,-1008 344.5,-1002 344.5,-1002 344.5,-990 344.5,-990 344.5,-984 350.5,-978 356.5,-978 356.5,-978 641,-978 641,-978 647,-978 653,-984 653,-990 653,-990 653,-1002 653,-1002 653,-1008 647,-1014 641,-1014"/>
<text xml:space="preserve" text-anchor="middle" x="498.75" y="-992.5" font-family="Arial" font-size="10.00">tools/codex/worktrees/C_features/apps/keystone/components/pit...</text>
</g>
<!-- n_f6f942831ce2b81ab81b5bd655b2689635f85541 -->
<g id="node15" class="node">
<title>n_f6f942831ce2b81ab81b5bd655b2689635f85541</title>
<path fill="none" stroke="black" d="M641,-1306C641,-1306 356.5,-1306 356.5,-1306 350.5,-1306 344.5,-1300 344.5,-1294 344.5,-1294 344.5,-1282 344.5,-1282 344.5,-1276 350.5,-1270 356.5,-1270 356.5,-1270 641,-1270 641,-1270 647,-1270 653,-1276 653,-1282 653,-1282 653,-1294 653,-1294 653,-1300 647,-1306 641,-1306"/>
<text xml:space="preserve" text-anchor="middle" x="498.75" y="-1284.5" font-family="Arial" font-size="10.00">tools/codex/worktrees/C_features/apps/keystone/components/pit...</text>
</g>
<!-- n_cf6380f60002517bbac7a803c175238ed1aa2749 -->
<g id="node16" class="node">
<title>n_cf6380f60002517bbac7a803c175238ed1aa2749</title>
<path fill="none" stroke="black" d="M641,-868C641,-868 356.5,-868 356.5,-868 350.5,-868 344.5,-862 344.5,-856 344.5,-856 344.5,-844 344.5,-844 344.5,-838 350.5,-832 356.5,-832 356.5,-832 641,-832 641,-832 647,-832 653,-838 653,-844 653,-844 653,-856 653,-856 653,-862 647,-868 641,-868"/>
<text xml:space="preserve" text-anchor="middle" x="498.75" y="-846.5" font-family="Arial" font-size="10.00">tools/codex/worktrees/C_features/apps/keystone/components/pit...</text>
</g>
<!-- n_0be47e94be9aff6ca7f382c1d46ee5fa68f3b3c7 -->
<g id="node17" class="node">
<title>n_0be47e94be9aff6ca7f382c1d46ee5fa68f3b3c7</title>
<path fill="none" stroke="black" d="M296.5,-1283C296.5,-1283 12,-1283 12,-1283 6,-1283 0,-1277 0,-1271 0,-1271 0,-1259 0,-1259 0,-1253 6,-1247 12,-1247 12,-1247 296.5,-1247 296.5,-1247 302.5,-1247 308.5,-1253 308.5,-1259 308.5,-1259 308.5,-1271 308.5,-1271 308.5,-1277 302.5,-1283 296.5,-1283"/>
<text xml:space="preserve" text-anchor="middle" x="154.25" y="-1261.5" font-family="Arial" font-size="10.00">tools/codex/worktrees/C_features/apps/keystone/components/pit...</text>
</g>
<!-- n_bc58d1e35bb2d3791c38fb83d86bd06dc0aaae1b -->
<g id="node18" class="node">
<title>n_bc58d1e35bb2d3791c38fb83d86bd06dc0aaae1b</title>
<path fill="none" stroke="black" d="M985.5,-1106C985.5,-1106 701,-1106 701,-1106 695,-1106 689,-1100 689,-1094 689,-1094 689,-1082 689,-1082 689,-1076 695,-1070 701,-1070 701,-1070 985.5,-1070 985.5,-1070 991.5,-1070 997.5,-1076 997.5,-1082 997.5,-1082 997.5,-1094 997.5,-1094 997.5,-1100 991.5,-1106 985.5,-1106"/>
<text xml:space="preserve" text-anchor="middle" x="843.25" y="-1084.5" font-family="Arial" font-size="10.00">tools/codex/worktrees/C_features/apps/keystone/components/pit...</text>
</g>
<!-- n_8895fc2f03b0cccedb317cc37a0112d5aef95492 -->
<g id="node19" class="node">
<title>n_8895fc2f03b0cccedb317cc37a0112d5aef95492</title>
<path fill="none" stroke="black" d="M641,-1106C641,-1106 356.5,-1106 356.5,-1106 350.5,-1106 344.5,-1100 344.5,-1094 344.5,-1094 344.5,-1082 344.5,-1082 344.5,-1076 350.5,-1070 356.5,-1070 356.5,-1070 641,-1070 641,-1070 647,-1070 653,-1076 653,-1082 653,-1082 653,-1094 653,-1094 653,-1100 647,-1106 641,-1106"/>
<text xml:space="preserve" text-anchor="middle" x="498.75" y="-1084.5" font-family="Arial" font-size="10.00">tools/codex/worktrees/C_features/apps/keystone/components/pit...</text>
</g>
<!-- n_8895fc2f03b0cccedb317cc37a0112d5aef95492&#45;&gt;n_bc58d1e35bb2d3791c38fb83d86bd06dc0aaae1b -->
<g id="edge21" class="edge">
<title>n_8895fc2f03b0cccedb317cc37a0112d5aef95492&#45;&gt;n_bc58d1e35bb2d3791c38fb83d86bd06dc0aaae1b</title>
<path fill="none" stroke="black" d="M653.47,-1088C661.29,-1088 669.17,-1088 677.03,-1088"/>
<polygon fill="black" stroke="black" points="677.01,-1091.5 687.01,-1088 677.01,-1084.5 677.01,-1091.5"/>
</g>
<!-- n_4102f5f497e7bba16976b00d99db68170b187624 -->
<g id="node20" class="node">
<title>n_4102f5f497e7bba16976b00d99db68170b187624</title>
<path fill="none" stroke="black" d="M641,-1160C641,-1160 356.5,-1160 356.5,-1160 350.5,-1160 344.5,-1154 344.5,-1148 344.5,-1148 344.5,-1136 344.5,-1136 344.5,-1130 350.5,-1124 356.5,-1124 356.5,-1124 641,-1124 641,-1124 647,-1124 653,-1130 653,-1136 653,-1136 653,-1148 653,-1148 653,-1154 647,-1160 641,-1160"/>
<text xml:space="preserve" text-anchor="middle" x="498.75" y="-1138.5" font-family="Arial" font-size="10.00">tools/codex/worktrees/C_features/apps/keystone/components/pit...</text>
</g>
<!-- n_f359c42162283e4b92f3ee9d275b568d68aab3a5 -->
<g id="node21" class="node">
<title>n_f359c42162283e4b92f3ee9d275b568d68aab3a5</title>
<path fill="none" stroke="black" d="M641,-960C641,-960 356.5,-960 356.5,-960 350.5,-960 344.5,-954 344.5,-948 344.5,-948 344.5,-936 344.5,-936 344.5,-930 350.5,-924 356.5,-924 356.5,-924 641,-924 641,-924 647,-924 653,-930 653,-936 653,-936 653,-948 653,-948 653,-954 647,-960 641,-960"/>
<text xml:space="preserve" text-anchor="middle" x="498.75" y="-938.5" font-family="Arial" font-size="10.00">tools/codex/worktrees/C_features/apps/keystone/components/pit...</text>
</g>
<!-- n_f23f8656e8516dd14b7c3f6a4e8bed232d272ef6 -->
<g id="node29" class="node">
<title>n_f23f8656e8516dd14b7c3f6a4e8bed232d272ef6</title>
<path fill="none" stroke="black" d="M985.5,-914C985.5,-914 701,-914 701,-914 695,-914 689,-908 689,-902 689,-902 689,-890 689,-890 689,-884 695,-878 701,-878 701,-878 985.5,-878 985.5,-878 991.5,-878 997.5,-884 997.5,-890 997.5,-890 997.5,-902 997.5,-902 997.5,-908 991.5,-914 985.5,-914"/>
<text xml:space="preserve" text-anchor="middle" x="843.25" y="-892.5" font-family="Arial" font-size="10.00">tools/codex/worktrees/C_features/apps/keystone/components/pit...</text>
</g>
<!-- n_f359c42162283e4b92f3ee9d275b568d68aab3a5&#45;&gt;n_f23f8656e8516dd14b7c3f6a4e8bed232d272ef6 -->
<g id="edge22" class="edge">
<title>n_f359c42162283e4b92f3ee9d275b568d68aab3a5&#45;&gt;n_f23f8656e8516dd14b7c3f6a4e8bed232d272ef6</title>
<path fill="none" stroke="black" d="M637.08,-923.56C655.59,-921.07 674.64,-918.51 693.34,-916"/>
<polygon fill="black" stroke="black" points="693.66,-919.49 703.11,-914.69 692.73,-912.55 693.66,-919.49"/>
</g>
<!-- n_b57ee6336d3ab7d46ba4bc842e255c142c039f57 -->
<g id="node22" class="node">
<title>n_b57ee6336d3ab7d46ba4bc842e255c142c039f57</title>
<path fill="none" stroke="black" d="M641,-630C641,-630 356.5,-630 356.5,-630 350.5,-630 344.5,-624 344.5,-618 344.5,-618 344.5,-606 344.5,-606 344.5,-600 350.5,-594 356.5,-594 356.5,-594 641,-594 641,-594 647,-594 653,-600 653,-606 653,-606 653,-618 653,-618 653,-624 647,-630 641,-630"/>
<text xml:space="preserve" text-anchor="middle" x="498.75" y="-608.5" font-family="Arial" font-size="10.00">tools/codex/worktrees/C_features/apps/keystone/components/pit...</text>
</g>
<!-- n_b57ee6336d3ab7d46ba4bc842e255c142c039f57&#45;&gt;n_f23f8656e8516dd14b7c3f6a4e8bed232d272ef6 -->
<g id="edge23" class="edge">
<title>n_b57ee6336d3ab7d46ba4bc842e255c142c039f57&#45;&gt;n_f23f8656e8516dd14b7c3f6a4e8bed232d272ef6</title>
<path fill="none" stroke="black" d="M626.08,-630.5C635.53,-634.22 644.63,-638.68 653,-644 741.8,-700.45 803.99,-814.31 829.43,-867.46"/>
<polygon fill="black" stroke="black" points="826.24,-868.9 833.65,-876.47 832.58,-865.93 826.24,-868.9"/>
</g>
<!-- n_a0840986fbabef6275a711bea8fd44e70d9380de -->
<g id="node23" class="node">
<title>n_a0840986fbabef6275a711bea8fd44e70d9380de</title>
<path fill="none" stroke="black" d="M296.5,-653C296.5,-653 12,-653 12,-653 6,-653 0,-647 0,-641 0,-641 0,-629 0,-629 0,-623 6,-617 12,-617 12,-617 296.5,-617 296.5,-617 302.5,-617 308.5,-623 308.5,-629 308.5,-629 308.5,-641 308.5,-641 308.5,-647 302.5,-653 296.5,-653"/>
<text xml:space="preserve" text-anchor="middle" x="154.25" y="-631.5" font-family="Arial" font-size="10.00">tools/codex/worktrees/C_features/apps/keystone/components/pit...</text>
</g>
<!-- n_a0840986fbabef6275a711bea8fd44e70d9380de&#45;&gt;n_b57ee6336d3ab7d46ba4bc842e255c142c039f57 -->
<g id="edge24" class="edge">
<title>n_a0840986fbabef6275a711bea8fd44e70d9380de&#45;&gt;n_b57ee6336d3ab7d46ba4bc842e255c142c039f57</title>
<path fill="none" stroke="black" d="M308.97,-624.68C316.88,-624.15 324.85,-623.61 332.8,-623.08"/>
<polygon fill="black" stroke="black" points="332.77,-626.59 342.51,-622.42 332.3,-619.6 332.77,-626.59"/>
</g>
<!-- n_a0840986fbabef6275a711bea8fd44e70d9380de&#45;&gt;n_f23f8656e8516dd14b7c3f6a4e8bed232d272ef6 -->
<g id="edge25" class="edge">
<title>n_a0840986fbabef6275a711bea8fd44e70d9380de&#45;&gt;n_f23f8656e8516dd14b7c3f6a4e8bed232d272ef6</title>
<path fill="none" stroke="black" d="M309,-642.14C443.76,-649.35 622.79,-661.61 653,-677 737.68,-720.14 800.53,-819.06 827.59,-867.8"/>
<polygon fill="black" stroke="black" points="824.39,-869.24 832.24,-876.35 830.53,-865.89 824.39,-869.24"/>
</g>
<!-- n_95df24512b71fb8f1d0cf83a962fbc83469af353 -->
<g id="node24" class="node">
<title>n_95df24512b71fb8f1d0cf83a962fbc83469af353</title>
<path fill="none" stroke="black" d="M296.5,-1229C296.5,-1229 12,-1229 12,-1229 6,-1229 0,-1223 0,-1217 0,-1217 0,-1205 0,-1205 0,-1199 6,-1193 12,-1193 12,-1193 296.5,-1193 296.5,-1193 302.5,-1193 308.5,-1199 308.5,-1205 308.5,-1205 308.5,-1217 308.5,-1217 308.5,-1223 302.5,-1229 296.5,-1229"/>
<text xml:space="preserve" text-anchor="middle" x="154.25" y="-1207.5" font-family="Arial" font-size="10.00">tools/codex/worktrees/C_features/apps/keystone/components/pit...</text>
</g>
<!-- n_95df24512b71fb8f1d0cf83a962fbc83469af353&#45;&gt;n_c8aac05e4a5e87c766159dd75a0d0ce77bb0522d -->
<g id="edge26" class="edge">
<title>n_95df24512b71fb8f1d0cf83a962fbc83469af353&#45;&gt;n_c8aac05e4a5e87c766159dd75a0d0ce77bb0522d</title>
<path fill="none" stroke="black" d="M295.26,-1229.35C299.89,-1231.92 304.32,-1234.8 308.5,-1238 338.48,-1260.98 314.52,-1292.02 344.5,-1315 345.68,-1315.9 346.87,-1316.78 348.09,-1317.63"/>
<polygon fill="black" stroke="black" points="346.12,-1320.52 356.45,-1322.85 349.82,-1314.58 346.12,-1320.52"/>
</g>
<!-- n_95df24512b71fb8f1d0cf83a962fbc83469af353&#45;&gt;n_f6f942831ce2b81ab81b5bd655b2689635f85541 -->
<g id="edge27" class="edge">
<title>n_95df24512b71fb8f1d0cf83a962fbc83469af353&#45;&gt;n_f6f942831ce2b81ab81b5bd655b2689635f85541</title>
<path fill="none" stroke="black" d="M282.61,-1229.4C291.48,-1231.91 300.19,-1234.76 308.5,-1238 326.19,-1244.89 326.81,-1254.11 344.5,-1261 349.43,-1262.92 354.51,-1264.71 359.67,-1266.37"/>
<polygon fill="black" stroke="black" points="358.36,-1269.62 368.94,-1269.16 360.38,-1262.92 358.36,-1269.62"/>
</g>
<!-- n_95df24512b71fb8f1d0cf83a962fbc83469af353&#45;&gt;n_4102f5f497e7bba16976b00d99db68170b187624 -->
<g id="edge28" class="edge">
<title>n_95df24512b71fb8f1d0cf83a962fbc83469af353&#45;&gt;n_4102f5f497e7bba16976b00d99db68170b187624</title>
<path fill="none" stroke="black" d="M247.03,-1192.51C292.62,-1183.33 347.86,-1172.2 394.87,-1162.73"/>
<polygon fill="black" stroke="black" points="395.41,-1166.19 404.53,-1160.78 394.03,-1159.32 395.41,-1166.19"/>
</g>
<!-- n_95df24512b71fb8f1d0cf83a962fbc83469af353&#45;&gt;n_f359c42162283e4b92f3ee9d275b568d68aab3a5 -->
<g id="edge29" class="edge">
<title>n_95df24512b71fb8f1d0cf83a962fbc83469af353&#45;&gt;n_f359c42162283e4b92f3ee9d275b568d68aab3a5</title>
<path fill="none" stroke="black" d="M181.92,-1192.61C215.73,-1168.05 273.77,-1121.48 308.5,-1069 334.57,-1029.61 308.37,-999.42 344.5,-969 345.31,-968.31 346.14,-967.64 346.97,-966.99"/>
<polygon fill="black" stroke="black" points="348.86,-969.94 355.07,-961.36 344.86,-964.2 348.86,-969.94"/>
</g>
<!-- n_22eddde177f3b45c5029f3f2406e5929d44c9630 -->
<g id="node28" class="node">
<title>n_22eddde177f3b45c5029f3f2406e5929d44c9630</title>
<path fill="none" stroke="black" d="M641,-1252C641,-1252 356.5,-1252 356.5,-1252 350.5,-1252 344.5,-1246 344.5,-1240 344.5,-1240 344.5,-1228 344.5,-1228 344.5,-1222 350.5,-1216 356.5,-1216 356.5,-1216 641,-1216 641,-1216 647,-1216 653,-1222 653,-1228 653,-1228 653,-1240 653,-1240 653,-1246 647,-1252 641,-1252"/>
<text xml:space="preserve" text-anchor="middle" x="498.75" y="-1230.5" font-family="Arial" font-size="10.00">tools/codex/worktrees/C_features/apps/keystone/components/pit...</text>
</g>
<!-- n_95df24512b71fb8f1d0cf83a962fbc83469af353&#45;&gt;n_22eddde177f3b45c5029f3f2406e5929d44c9630 -->
<g id="edge30" class="edge">
<title>n_95df24512b71fb8f1d0cf83a962fbc83469af353&#45;&gt;n_22eddde177f3b45c5029f3f2406e5929d44c9630</title>
<path fill="none" stroke="black" d="M308.97,-1221.32C316.88,-1221.85 324.85,-1222.39 332.8,-1222.92"/>
<polygon fill="black" stroke="black" points="332.3,-1226.4 342.51,-1223.58 332.77,-1219.41 332.3,-1226.4"/>
</g>
<!-- n_95df24512b71fb8f1d0cf83a962fbc83469af353&#45;&gt;n_f23f8656e8516dd14b7c3f6a4e8bed232d272ef6 -->
<g id="edge31" class="edge">
<title>n_95df24512b71fb8f1d0cf83a962fbc83469af353&#45;&gt;n_f23f8656e8516dd14b7c3f6a4e8bed232d272ef6</title>
<path fill="none" stroke="black" d="M308.99,-1206.46C445.1,-1201.08 626.25,-1190.05 653,-1169 692.76,-1137.71 663.2,-1104.52 689,-1061 722.22,-1004.97 777.11,-951.98 811.39,-921.81"/>
<polygon fill="black" stroke="black" points="813.66,-924.47 818.92,-915.27 809.07,-919.19 813.66,-924.47"/>
</g>
<!-- n_52330a68c54fb8d3a112e8b0a1d25c95417b3fc5 -->
<g id="node25" class="node">
<title>n_52330a68c54fb8d3a112e8b0a1d25c95417b3fc5</title>
<path fill="none" stroke="black" d="M296.5,-914C296.5,-914 12,-914 12,-914 6,-914 0,-908 0,-902 0,-902 0,-890 0,-890 0,-884 6,-878 12,-878 12,-878 296.5,-878 296.5,-878 302.5,-878 308.5,-884 308.5,-890 308.5,-890 308.5,-902 308.5,-902 308.5,-908 302.5,-914 296.5,-914"/>
<text xml:space="preserve" text-anchor="middle" x="154.25" y="-892.5" font-family="Arial" font-size="10.00">tools/codex/worktrees/C_features/apps/keystone/components/pit...</text>
</g>
<!-- n_52330a68c54fb8d3a112e8b0a1d25c95417b3fc5&#45;&gt;n_cf6380f60002517bbac7a803c175238ed1aa2749 -->
<g id="edge32" class="edge">
<title>n_52330a68c54fb8d3a112e8b0a1d25c95417b3fc5&#45;&gt;n_cf6380f60002517bbac7a803c175238ed1aa2749</title>
<path fill="none" stroke="black" d="M292.58,-877.56C311.09,-875.07 330.14,-872.51 348.84,-870"/>
<polygon fill="black" stroke="black" points="349.16,-873.49 358.61,-868.69 348.23,-866.55 349.16,-873.49"/>
</g>
<!-- n_52330a68c54fb8d3a112e8b0a1d25c95417b3fc5&#45;&gt;n_f359c42162283e4b92f3ee9d275b568d68aab3a5 -->
<g id="edge33" class="edge">
<title>n_52330a68c54fb8d3a112e8b0a1d25c95417b3fc5&#45;&gt;n_f359c42162283e4b92f3ee9d275b568d68aab3a5</title>
<path fill="none" stroke="black" d="M292.58,-914.44C311.09,-916.93 330.14,-919.49 348.84,-922"/>
<polygon fill="black" stroke="black" points="348.23,-925.45 358.61,-923.31 349.16,-918.51 348.23,-925.45"/>
</g>
<!-- n_52330a68c54fb8d3a112e8b0a1d25c95417b3fc5&#45;&gt;n_f23f8656e8516dd14b7c3f6a4e8bed232d272ef6 -->
<g id="edge34" class="edge">
<title>n_52330a68c54fb8d3a112e8b0a1d25c95417b3fc5&#45;&gt;n_f23f8656e8516dd14b7c3f6a4e8bed232d272ef6</title>
<path fill="none" stroke="black" d="M309,-896C418.46,-896 565.38,-896 677.29,-896"/>
<polygon fill="black" stroke="black" points="677.18,-899.5 687.18,-896 677.18,-892.5 677.18,-899.5"/>
</g>
<!-- n_e11c74ad3b0e0e21d87003e0316a2ea4bfb75966 -->
<g id="node26" class="node">
<title>n_e11c74ad3b0e0e21d87003e0316a2ea4bfb75966</title>
<path fill="none" stroke="black" d="M296.5,-1060C296.5,-1060 12,-1060 12,-1060 6,-1060 0,-1054 0,-1048 0,-1048 0,-1036 0,-1036 0,-1030 6,-1024 12,-1024 12,-1024 296.5,-1024 296.5,-1024 302.5,-1024 308.5,-1030 308.5,-1036 308.5,-1036 308.5,-1048 308.5,-1048 308.5,-1054 302.5,-1060 296.5,-1060"/>
<text xml:space="preserve" text-anchor="middle" x="154.25" y="-1038.5" font-family="Arial" font-size="10.00">tools/codex/worktrees/C_features/apps/keystone/components/pit...</text>
</g>
<!-- n_e11c74ad3b0e0e21d87003e0316a2ea4bfb75966&#45;&gt;n_e04c0c5bdef09b1619b33a451a79cb8bdf4ad63d -->
<g id="edge35" class="edge">
<title>n_e11c74ad3b0e0e21d87003e0316a2ea4bfb75966&#45;&gt;n_e04c0c5bdef09b1619b33a451a79cb8bdf4ad63d</title>
<path fill="none" stroke="black" d="M292.58,-1023.56C311.09,-1021.07 330.14,-1018.51 348.84,-1016"/>
<polygon fill="black" stroke="black" points="349.16,-1019.49 358.61,-1014.69 348.23,-1012.55 349.16,-1019.49"/>
</g>
<!-- n_e11c74ad3b0e0e21d87003e0316a2ea4bfb75966&#45;&gt;n_8895fc2f03b0cccedb317cc37a0112d5aef95492 -->
<g id="edge36" class="edge">
<title>n_e11c74ad3b0e0e21d87003e0316a2ea4bfb75966&#45;&gt;n_8895fc2f03b0cccedb317cc37a0112d5aef95492</title>
<path fill="none" stroke="black" d="M292.58,-1060.44C311.09,-1062.93 330.14,-1065.49 348.84,-1068"/>
<polygon fill="black" stroke="black" points="348.23,-1071.45 358.61,-1069.31 349.16,-1064.51 348.23,-1071.45"/>
</g>
<!-- n_e11c74ad3b0e0e21d87003e0316a2ea4bfb75966&#45;&gt;n_4102f5f497e7bba16976b00d99db68170b187624 -->
<g id="edge37" class="edge">
<title>n_e11c74ad3b0e0e21d87003e0316a2ea4bfb75966&#45;&gt;n_4102f5f497e7bba16976b00d99db68170b187624</title>
<path fill="none" stroke="black" d="M196.19,-1060.45C234,-1076.85 292.08,-1100.42 344.5,-1115 352.28,-1117.16 360.34,-1119.19 368.5,-1121.09"/>
<polygon fill="black" stroke="black" points="367.67,-1124.49 378.2,-1123.25 369.2,-1117.66 367.67,-1124.49"/>
</g>
<!-- n_e11c74ad3b0e0e21d87003e0316a2ea4bfb75966&#45;&gt;n_f359c42162283e4b92f3ee9d275b568d68aab3a5 -->
<g id="edge38" class="edge">
<title>n_e11c74ad3b0e0e21d87003e0316a2ea4bfb75966&#45;&gt;n_f359c42162283e4b92f3ee9d275b568d68aab3a5</title>
<path fill="none" stroke="black" d="M196.19,-1023.55C234,-1007.15 292.08,-983.58 344.5,-969 352.28,-966.84 360.34,-964.81 368.5,-962.91"/>
<polygon fill="black" stroke="black" points="369.2,-966.34 378.2,-960.75 367.67,-959.51 369.2,-966.34"/>
</g>
<!-- n_e11c74ad3b0e0e21d87003e0316a2ea4bfb75966&#45;&gt;n_f23f8656e8516dd14b7c3f6a4e8bed232d272ef6 -->
<g id="edge39" class="edge">
<title>n_e11c74ad3b0e0e21d87003e0316a2ea4bfb75966&#45;&gt;n_f23f8656e8516dd14b7c3f6a4e8bed232d272ef6</title>
<path fill="none" stroke="black" d="M308.77,-1057.46C409.15,-1062.45 541.78,-1059.19 653,-1023 717.34,-1002.06 780.17,-952.43 814.8,-921.78"/>
<polygon fill="black" stroke="black" points="816.76,-924.72 821.85,-915.43 812.08,-919.52 816.76,-924.72"/>
</g>
<!-- n_5729895e41b5f54f85b82fc4f351d2603e292d06 -->
<g id="node27" class="node">
<title>n_5729895e41b5f54f85b82fc4f351d2603e292d06</title>
<path fill="none" stroke="black" d="M296.5,-791C296.5,-791 12,-791 12,-791 6,-791 0,-785 0,-779 0,-779 0,-767 0,-767 0,-761 6,-755 12,-755 12,-755 296.5,-755 296.5,-755 302.5,-755 308.5,-761 308.5,-767 308.5,-767 308.5,-779 308.5,-779 308.5,-785 302.5,-791 296.5,-791"/>
<text xml:space="preserve" text-anchor="middle" x="154.25" y="-769.5" font-family="Arial" font-size="10.00">tools/codex/worktrees/C_features/apps/keystone/components/pit...</text>
</g>
<!-- n_5729895e41b5f54f85b82fc4f351d2603e292d06&#45;&gt;n_108a2f18b3047ff7ca8caf87037962ef068357c4 -->
<g id="edge40" class="edge">
<title>n_5729895e41b5f54f85b82fc4f351d2603e292d06&#45;&gt;n_108a2f18b3047ff7ca8caf87037962ef068357c4</title>
<path fill="none" stroke="black" d="M308.97,-783.32C316.88,-783.85 324.85,-784.39 332.8,-784.92"/>
<polygon fill="black" stroke="black" points="332.3,-788.4 342.51,-785.58 332.77,-781.41 332.3,-788.4"/>
</g>
<!-- n_5729895e41b5f54f85b82fc4f351d2603e292d06&#45;&gt;n_f359c42162283e4b92f3ee9d275b568d68aab3a5 -->
<g id="edge41" class="edge">
<title>n_5729895e41b5f54f85b82fc4f351d2603e292d06&#45;&gt;n_f359c42162283e4b92f3ee9d275b568d68aab3a5</title>
<path fill="none" stroke="black" d="M186.55,-791.48C223.66,-813.09 287.67,-849.42 344.5,-877 375.76,-892.17 411.46,-907.43 440.54,-919.35"/>
<polygon fill="black" stroke="black" points="438.95,-922.48 449.53,-923.01 441.59,-915.99 438.95,-922.48"/>
</g>
<!-- n_5729895e41b5f54f85b82fc4f351d2603e292d06&#45;&gt;n_f23f8656e8516dd14b7c3f6a4e8bed232d272ef6 -->
<g id="edge42" class="edge">
<title>n_5729895e41b5f54f85b82fc4f351d2603e292d06&#45;&gt;n_f23f8656e8516dd14b7c3f6a4e8bed232d272ef6</title>
<path fill="none" stroke="black" d="M258.38,-754.54C360.87,-740.25 521.35,-728.92 653,-769 717.91,-788.76 780.77,-839.03 815.2,-870.07"/>
<polygon fill="black" stroke="black" points="812.48,-872.32 822.22,-876.49 817.21,-867.15 812.48,-872.32"/>
</g>
<!-- n_7665687a2e57093b9e8bcf2ce8fe72929c86484f -->
<g id="node30" class="node">
<title>n_7665687a2e57093b9e8bcf2ce8fe72929c86484f</title>
<path fill="none" stroke="black" d="M641,-722C641,-722 356.5,-722 356.5,-722 350.5,-722 344.5,-716 344.5,-710 344.5,-710 344.5,-698 344.5,-698 344.5,-692 350.5,-686 356.5,-686 356.5,-686 641,-686 641,-686 647,-686 653,-692 653,-698 653,-698 653,-710 653,-710 653,-716 647,-722 641,-722"/>
<text xml:space="preserve" text-anchor="middle" x="498.75" y="-700.5" font-family="Arial" font-size="10.00">tools/codex/worktrees/C_features/apps/keystone/components/pit...</text>
</g>
<!-- n_5729895e41b5f54f85b82fc4f351d2603e292d06&#45;&gt;n_7665687a2e57093b9e8bcf2ce8fe72929c86484f -->
<g id="edge43" class="edge">
<title>n_5729895e41b5f54f85b82fc4f351d2603e292d06&#45;&gt;n_7665687a2e57093b9e8bcf2ce8fe72929c86484f</title>
<path fill="none" stroke="black" d="M247.03,-754.51C292.62,-745.33 347.86,-734.2 394.87,-724.73"/>
<polygon fill="black" stroke="black" points="395.41,-728.19 404.53,-722.78 394.03,-721.32 395.41,-728.19"/>
</g>
</g>
</svg>
