<?xml version="1.0" encoding="UTF-8" standalone="no"?>
<!DOCTYPE svg PUBLIC "-//W3C//DTD SVG 1.1//EN"
 "http://www.w3.org/Graphics/SVG/1.1/DTD/svg11.dtd">
<!-- Generated by graphviz version 14.1.3 (20260303.0454)
 -->
<!-- Title: folder_138 Pages: 1 -->
<svg width="701pt" height="73pt"
 viewBox="0.00 0.00 701.00 73.00" xmlns="http://www.w3.org/2000/svg" xmlns:xlink="http://www.w3.org/1999/xlink">
<g id="graph0" class="graph" transform="scale(1 1) rotate(0) translate(4 69)">
<title>folder_138</title>
<polygon fill="white" stroke="none" points="-4,4 -4,-69 696.5,-69 696.5,4 -4,4"/>
<text xml:space="preserve" text-anchor="middle" x="346.25" y="-43.9" font-family="Times New Roman,serif" font-size="18.00">138 | artifacts/keystone&#45;pitch&#45;engine/programs/hitech&#45;pitch/20260304_101046_A08H/player</text>
<!-- n_bcf5c3e5beb9fa711b64b1932ea5477ca935d462 -->
<g id="node1" class="node">
<title>n_bcf5c3e5beb9fa711b64b1932ea5477ca935d462</title>
<path fill="none" stroke="black" d="M481.75,-36C481.75,-36 210.75,-36 210.75,-36 204.75,-36 198.75,-30 198.75,-24 198.75,-24 198.75,-12 198.75,-12 198.75,-6 204.75,0 210.75,0 210.75,0 481.75,0 481.75,0 487.75,0 493.75,-6 493.75,-12 493.75,-12 493.75,-24 493.75,-24 493.75,-30 487.75,-36 481.75,-36"/>
<text xml:space="preserve" text-anchor="middle" x="346.25" y="-14.5" font-family="Arial" font-size="10.00">artifacts/keystone&#45;pitch&#45;engine/programs/hitech&#45;pitch/2026030...</text>
</g>
</g>
</svg>
