<?xml version="1.0" encoding="UTF-8" standalone="no"?>
<!DOCTYPE svg PUBLIC "-//W3C//DTD SVG 1.1//EN"
 "http://www.w3.org/Graphics/SVG/1.1/DTD/svg11.dtd">
<!-- Generated by graphviz version 14.1.3 (20260303.0454)
 -->
<!-- Title: folder_299 Pages: 1 -->
<svg width="788pt" height="127pt"
 viewBox="0.00 0.00 788.00 127.00" xmlns="http://www.w3.org/2000/svg" xmlns:xlink="http://www.w3.org/1999/xlink">
<g id="graph0" class="graph" transform="scale(1 1) rotate(0) translate(4 123)">
<title>folder_299</title>
<polygon fill="white" stroke="none" points="-4,4 -4,-123 783.5,-123 783.5,4 -4,4"/>
<text xml:space="preserve" text-anchor="middle" x="389.75" y="-97.9" font-family="Times New Roman,serif" font-size="18.00">299 | tools/codex/runs/20260228_164549_2F73/D_validation/FILES/packages/ui&#45;kit/tests/layers/fixtures</text>
<!-- n_0a67be1655dee38959155982c2e104311add89ce -->
<g id="node1" class="node">
<title>n_0a67be1655dee38959155982c2e104311add89ce</title>
<path fill="none" stroke="black" d="M536.5,-36C536.5,-36 243,-36 243,-36 237,-36 231,-30 231,-24 231,-24 231,-12 231,-12 231,-6 237,0 243,0 243,0 536.5,0 536.5,0 542.5,0 548.5,-6 548.5,-12 548.5,-12 548.5,-24 548.5,-24 548.5,-30 542.5,-36 536.5,-36"/>
<text xml:space="preserve" text-anchor="middle" x="389.75" y="-14.5" font-family="Arial" font-size="10.00">tools/codex/runs/20260228_164549_2F73/D_validation/FILES/pack...</text>
</g>
<!-- n_023c9384da1f639b4754464e84ed45b2835330da -->
<g id="node2" class="node">
<title>n_023c9384da1f639b4754464e84ed45b2835330da</title>
<path fill="none" stroke="black" d="M536.5,-90C536.5,-90 243,-90 243,-90 237,-90 231,-84 231,-78 231,-78 231,-66 231,-66 231,-60 237,-54 243,-54 243,-54 536.5,-54 536.5,-54 542.5,-54 548.5,-60 548.5,-66 548.5,-66 548.5,-78 548.5,-78 548.5,-84 542.5,-90 536.5,-90"/>
<text xml:space="preserve" text-anchor="middle" x="389.75" y="-68.5" font-family="Arial" font-size="10.00">tools/codex/runs/20260228_164549_2F73/D_validation/FILES/pack...</text>
</g>
</g>
</svg>
