<?xml version="1.0" encoding="UTF-8" standalone="no"?>
<!DOCTYPE svg PUBLIC "-//W3C//DTD SVG 1.1//EN"
 "http://www.w3.org/Graphics/SVG/1.1/DTD/svg11.dtd">
<!-- Generated by graphviz version 14.1.3 (20260303.0454)
 -->
<!-- Title: folder_955 Pages: 1 -->
<svg width="997pt" height="73pt"
 viewBox="0.00 0.00 997.00 73.00" xmlns="http://www.w3.org/2000/svg" xmlns:xlink="http://www.w3.org/1999/xlink">
<g id="graph0" class="graph" transform="scale(1 1) rotate(0) translate(4 69)">
<title>folder_955</title>
<polygon fill="white" stroke="none" points="-4,4 -4,-69 992.75,-69 992.75,4 -4,4"/>
<text xml:space="preserve" text-anchor="middle" x="494.38" y="-43.9" font-family="Times New Roman,serif" font-size="18.00">955 | tools/codex/worktrees/Z_aggregator/tools/codex/runs/20260304_174651_DBC8/Z_aggregator/FILES/packages/ui&#45;kit/src/layers</text>
<!-- n_f40709d1ae582ef9184adbf04cac4d0ab0a0bad6 -->
<g id="node1" class="node">
<title>n_f40709d1ae582ef9184adbf04cac4d0ab0a0bad6</title>
<path fill="none" stroke="black" d="M635.5,-36C635.5,-36 353.25,-36 353.25,-36 347.25,-36 341.25,-30 341.25,-24 341.25,-24 341.25,-12 341.25,-12 341.25,-6 347.25,0 353.25,0 353.25,0 635.5,0 635.5,0 641.5,0 647.5,-6 647.5,-12 647.5,-12 647.5,-24 647.5,-24 647.5,-30 641.5,-36 635.5,-36"/>
<text xml:space="preserve" text-anchor="middle" x="494.38" y="-14.5" font-family="Arial" font-size="10.00">tools/codex/worktrees/Z_aggregator/tools/codex/runs/20260304_...</text>
</g>
</g>
</svg>
