<?xml version="1.0" encoding="UTF-8" standalone="no"?>
<!DOCTYPE svg PUBLIC "-//W3C//DTD SVG 1.1//EN"
 "http://www.w3.org/Graphics/SVG/1.1/DTD/svg11.dtd">
<!-- Generated by graphviz version 14.1.3 (20260303.0454)
 -->
<!-- Title: folder_865 Pages: 1 -->
<svg width="608pt" height="73pt"
 viewBox="0.00 0.00 608.00 73.00" xmlns="http://www.w3.org/2000/svg" xmlns:xlink="http://www.w3.org/1999/xlink">
<g id="graph0" class="graph" transform="scale(1 1) rotate(0) translate(4 69)">
<title>folder_865</title>
<polygon fill="white" stroke="none" points="-4,4 -4,-69 603.77,-69 603.77,4 -4,4"/>
<text xml:space="preserve" text-anchor="middle" x="299.89" y="-43.9" font-family="Times New Roman,serif" font-size="18.00">865 | tools/codex/worktrees/Z_aggregator/apps/keystone/app/api/widgets</text>
<!-- n_8d7d29ebd0f5f1e407c667382e8570e7727c4708 -->
<g id="node1" class="node">
<title>n_8d7d29ebd0f5f1e407c667382e8570e7727c4708</title>
<path fill="none" stroke="black" d="M293.5,-36C293.5,-36 12,-36 12,-36 6,-36 0,-30 0,-24 0,-24 0,-12 0,-12 0,-6 6,0 12,0 12,0 293.5,0 293.5,0 299.5,0 305.5,-6 305.5,-12 305.5,-12 305.5,-24 305.5,-24 305.5,-30 299.5,-36 293.5,-36"/>
<text xml:space="preserve" text-anchor="middle" x="152.75" y="-14.5" font-family="Arial" font-size="10.00">tools/codex/worktrees/Z_aggregator/apps/keystone/app/api/widg...</text>
</g>
<!-- n_beb4f843d5fad5f93de6a4e05b136bf6f9ffcff9 -->
<g id="node2" class="node">
<title>n_beb4f843d5fad5f93de6a4e05b136bf6f9ffcff9</title>
<ellipse fill="none" stroke="black" cx="470.64" cy="-18" rx="129.14" ry="18"/>
<text xml:space="preserve" text-anchor="middle" x="470.64" y="-14.5" font-family="Arial" font-size="10.00">n_beb4f843d5fad5f93de6a4e05b136bf6f9ffcff9</text>
</g>
<!-- n_8d7d29ebd0f5f1e407c667382e8570e7727c4708&#45;&gt;n_beb4f843d5fad5f93de6a4e05b136bf6f9ffcff9 -->
<g id="edge1" class="edge">
<title>n_8d7d29ebd0f5f1e407c667382e8570e7727c4708&#45;&gt;n_beb4f843d5fad5f93de6a4e05b136bf6f9ffcff9</title>
<path fill="none" stroke="black" d="M305.68,-18C313.74,-18 321.81,-18 329.83,-18"/>
<polygon fill="black" stroke="black" points="329.6,-21.5 339.6,-18 329.6,-14.5 329.6,-21.5"/>
</g>
</g>
</svg>
