<?xml version="1.0" encoding="UTF-8" standalone="no"?>
<!DOCTYPE svg PUBLIC "-//W3C//DTD SVG 1.1//EN"
 "http://www.w3.org/Graphics/SVG/1.1/DTD/svg11.dtd">
<!-- Generated by graphviz version 14.1.3 (20260303.0454)
 -->
<!-- Title: folder_691 Pages: 1 -->
<svg width="962pt" height="443pt"
 viewBox="0.00 0.00 962.00 443.00" xmlns="http://www.w3.org/2000/svg" xmlns:xlink="http://www.w3.org/1999/xlink">
<g id="graph0" class="graph" transform="scale(1 1) rotate(0) translate(4 439)">
<title>folder_691</title>
<polygon fill="white" stroke="none" points="-4,4 -4,-439 957.93,-439 957.93,4 -4,4"/>
<text xml:space="preserve" text-anchor="middle" x="476.97" y="-413.9" font-family="Times New Roman,serif" font-size="18.00">691 | tools/codex/worktrees/C_features/packages/contracts/src/fixtures</text>
<!-- n_dbebcb76697eb9a95daa96efbce796de681bd8ab -->
<g id="node1" class="node">
<title>n_dbebcb76697eb9a95daa96efbce796de681bd8ab</title>
<path fill="none" stroke="black" d="M621.5,-352C621.5,-352 346.75,-352 346.75,-352 340.75,-352 334.75,-346 334.75,-340 334.75,-340 334.75,-328 334.75,-328 334.75,-322 340.75,-316 346.75,-316 346.75,-316 621.5,-316 621.5,-316 627.5,-316 633.5,-322 633.5,-328 633.5,-328 633.5,-340 633.5,-340 633.5,-346 627.5,-352 621.5,-352"/>
<text xml:space="preserve" text-anchor="middle" x="484.12" y="-330.5" font-family="Arial" font-size="10.00">tools/codex/worktrees/C_features/packages/contracts/src/fixtu...</text>
</g>
<!-- n_78c24727a15dc32a9d08945edb1c05d889e1dced -->
<g id="node9" class="node">
<title>n_78c24727a15dc32a9d08945edb1c05d889e1dced</title>
<ellipse fill="none" stroke="black" cx="811.72" cy="-342" rx="142.22" ry="18"/>
<text xml:space="preserve" text-anchor="middle" x="811.72" y="-338.5" font-family="Arial" font-size="10.00">n_78c24727a15dc32a9d08945edb1c05d889e1dced</text>
</g>
<!-- n_dbebcb76697eb9a95daa96efbce796de681bd8ab&#45;&gt;n_78c24727a15dc32a9d08945edb1c05d889e1dced -->
<g id="edge1" class="edge">
<title>n_dbebcb76697eb9a95daa96efbce796de681bd8ab&#45;&gt;n_78c24727a15dc32a9d08945edb1c05d889e1dced</title>
<path fill="none" stroke="black" d="M633.63,-337.65C642.53,-337.87 651.49,-338.09 660.4,-338.31"/>
<polygon fill="black" stroke="black" points="660.06,-341.8 670.14,-338.55 660.23,-334.8 660.06,-341.8"/>
</g>
<!-- n_190947ef9058845ee9791eefa8e223f8d558bb35 -->
<g id="node10" class="node">
<title>n_190947ef9058845ee9791eefa8e223f8d558bb35</title>
<ellipse fill="none" stroke="black" cx="811.72" cy="-180" rx="138.16" ry="18"/>
<text xml:space="preserve" text-anchor="middle" x="811.72" y="-176.5" font-family="Arial" font-size="10.00">n_190947ef9058845ee9791eefa8e223f8d558bb35</text>
</g>
<!-- n_dbebcb76697eb9a95daa96efbce796de681bd8ab&#45;&gt;n_190947ef9058845ee9791eefa8e223f8d558bb35 -->
<g id="edge2" class="edge">
<title>n_dbebcb76697eb9a95daa96efbce796de681bd8ab&#45;&gt;n_190947ef9058845ee9791eefa8e223f8d558bb35</title>
<path fill="none" stroke="black" d="M621.41,-315.69C625.65,-313.1 629.7,-310.21 633.5,-307 669.55,-276.47 633.59,-237.69 669.5,-207 674.92,-202.37 680.88,-198.44 687.21,-195.11"/>
<polygon fill="black" stroke="black" points="688.46,-198.38 696.04,-190.99 685.5,-192.04 688.46,-198.38"/>
</g>
<!-- n_500ef805e1c65ab48299c4f4ce111d00a6809a12 -->
<g id="node2" class="node">
<title>n_500ef805e1c65ab48299c4f4ce111d00a6809a12</title>
<path fill="none" stroke="black" d="M286.75,-271C286.75,-271 12,-271 12,-271 6,-271 0,-265 0,-259 0,-259 0,-247 0,-247 0,-241 6,-235 12,-235 12,-235 286.75,-235 286.75,-235 292.75,-235 298.75,-241 298.75,-247 298.75,-247 298.75,-259 298.75,-259 298.75,-265 292.75,-271 286.75,-271"/>
<text xml:space="preserve" text-anchor="middle" x="149.38" y="-249.5" font-family="Arial" font-size="10.00">tools/codex/worktrees/C_features/packages/contracts/src/fixtu...</text>
</g>
<!-- n_500ef805e1c65ab48299c4f4ce111d00a6809a12&#45;&gt;n_dbebcb76697eb9a95daa96efbce796de681bd8ab -->
<g id="edge3" class="edge">
<title>n_500ef805e1c65ab48299c4f4ce111d00a6809a12&#45;&gt;n_dbebcb76697eb9a95daa96efbce796de681bd8ab</title>
<path fill="none" stroke="black" d="M275.51,-271.38C283.5,-273.89 291.31,-276.75 298.75,-280 317.08,-288 316.42,-299 334.75,-307 338.82,-308.78 343,-310.44 347.26,-311.99"/>
<polygon fill="black" stroke="black" points="345.96,-315.24 356.55,-315.13 348.2,-308.61 345.96,-315.24"/>
</g>
<!-- n_cd666995aac66537de698203fb3f00e5ce0eb114 -->
<g id="node6" class="node">
<title>n_cd666995aac66537de698203fb3f00e5ce0eb114</title>
<path fill="none" stroke="black" d="M621.5,-298C621.5,-298 346.75,-298 346.75,-298 340.75,-298 334.75,-292 334.75,-286 334.75,-286 334.75,-274 334.75,-274 334.75,-268 340.75,-262 346.75,-262 346.75,-262 621.5,-262 621.5,-262 627.5,-262 633.5,-268 633.5,-274 633.5,-274 633.5,-286 633.5,-286 633.5,-292 627.5,-298 621.5,-298"/>
<text xml:space="preserve" text-anchor="middle" x="484.12" y="-276.5" font-family="Arial" font-size="10.00">tools/codex/worktrees/C_features/packages/contracts/src/fixtu...</text>
</g>
<!-- n_500ef805e1c65ab48299c4f4ce111d00a6809a12&#45;&gt;n_cd666995aac66537de698203fb3f00e5ce0eb114 -->
<g id="edge4" class="edge">
<title>n_500ef805e1c65ab48299c4f4ce111d00a6809a12&#45;&gt;n_cd666995aac66537de698203fb3f00e5ce0eb114</title>
<path fill="none" stroke="black" d="M299.23,-265.08C307.17,-265.72 315.16,-266.37 323.14,-267.02"/>
<polygon fill="black" stroke="black" points="322.63,-270.49 332.88,-267.81 323.2,-263.51 322.63,-270.49"/>
</g>
<!-- n_cb3bbf216c9ebb6532da1b18ff7fdd0617d71c76 -->
<g id="node7" class="node">
<title>n_cb3bbf216c9ebb6532da1b18ff7fdd0617d71c76</title>
<path fill="none" stroke="black" d="M621.5,-244C621.5,-244 346.75,-244 346.75,-244 340.75,-244 334.75,-238 334.75,-232 334.75,-232 334.75,-220 334.75,-220 334.75,-214 340.75,-208 346.75,-208 346.75,-208 621.5,-208 621.5,-208 627.5,-208 633.5,-214 633.5,-220 633.5,-220 633.5,-232 633.5,-232 633.5,-238 627.5,-244 621.5,-244"/>
<text xml:space="preserve" text-anchor="middle" x="484.12" y="-222.5" font-family="Arial" font-size="10.00">tools/codex/worktrees/C_features/packages/contracts/src/fixtu...</text>
</g>
<!-- n_500ef805e1c65ab48299c4f4ce111d00a6809a12&#45;&gt;n_cb3bbf216c9ebb6532da1b18ff7fdd0617d71c76 -->
<g id="edge5" class="edge">
<title>n_500ef805e1c65ab48299c4f4ce111d00a6809a12&#45;&gt;n_cb3bbf216c9ebb6532da1b18ff7fdd0617d71c76</title>
<path fill="none" stroke="black" d="M299.23,-240.92C307.17,-240.28 315.16,-239.63 323.14,-238.98"/>
<polygon fill="black" stroke="black" points="323.2,-242.49 332.88,-238.19 322.63,-235.51 323.2,-242.49"/>
</g>
<!-- n_83c25d7e51e89c2bc7f554b1788c1effe6bf16fd -->
<g id="node8" class="node">
<title>n_83c25d7e51e89c2bc7f554b1788c1effe6bf16fd</title>
<path fill="none" stroke="black" d="M621.5,-152C621.5,-152 346.75,-152 346.75,-152 340.75,-152 334.75,-146 334.75,-140 334.75,-140 334.75,-128 334.75,-128 334.75,-122 340.75,-116 346.75,-116 346.75,-116 621.5,-116 621.5,-116 627.5,-116 633.5,-122 633.5,-128 633.5,-128 633.5,-140 633.5,-140 633.5,-146 627.5,-152 621.5,-152"/>
<text xml:space="preserve" text-anchor="middle" x="484.12" y="-130.5" font-family="Arial" font-size="10.00">tools/codex/worktrees/C_features/packages/contracts/src/fixtu...</text>
</g>
<!-- n_500ef805e1c65ab48299c4f4ce111d00a6809a12&#45;&gt;n_83c25d7e51e89c2bc7f554b1788c1effe6bf16fd -->
<g id="edge6" class="edge">
<title>n_500ef805e1c65ab48299c4f4ce111d00a6809a12&#45;&gt;n_83c25d7e51e89c2bc7f554b1788c1effe6bf16fd</title>
<path fill="none" stroke="black" d="M183.4,-234.58C219.57,-215.09 279.77,-184.63 334.75,-166 346.53,-162.01 359,-158.4 371.52,-155.18"/>
<polygon fill="black" stroke="black" points="372.18,-158.62 381.04,-152.8 370.49,-151.83 372.18,-158.62"/>
</g>
<!-- n_500ef805e1c65ab48299c4f4ce111d00a6809a12&#45;&gt;n_190947ef9058845ee9791eefa8e223f8d558bb35 -->
<g id="edge8" class="edge">
<title>n_500ef805e1c65ab48299c4f4ce111d00a6809a12&#45;&gt;n_190947ef9058845ee9791eefa8e223f8d558bb35</title>
<path fill="none" stroke="black" d="M200.86,-234.57C237.48,-222.1 288.5,-206.58 334.75,-199 444.15,-181.08 569.49,-176.71 664.07,-176.62"/>
<polygon fill="black" stroke="black" points="663.93,-180.12 673.94,-176.63 663.94,-173.12 663.93,-180.12"/>
</g>
<!-- n_4416c44c170ce2dad112159271cc3510cb009dde -->
<g id="node11" class="node">
<title>n_4416c44c170ce2dad112159271cc3510cb009dde</title>
<ellipse fill="none" stroke="black" cx="484.12" cy="-388" rx="141.77" ry="18"/>
<text xml:space="preserve" text-anchor="middle" x="484.12" y="-384.5" font-family="Arial" font-size="10.00">n_4416c44c170ce2dad112159271cc3510cb009dde</text>
</g>
<!-- n_500ef805e1c65ab48299c4f4ce111d00a6809a12&#45;&gt;n_4416c44c170ce2dad112159271cc3510cb009dde -->
<g id="edge7" class="edge">
<title>n_500ef805e1c65ab48299c4f4ce111d00a6809a12&#45;&gt;n_4416c44c170ce2dad112159271cc3510cb009dde</title>
<path fill="none" stroke="black" d="M286.02,-271.47C290.47,-274.01 294.74,-276.84 298.75,-280 329.72,-304.35 303.78,-336.65 334.75,-361 341.05,-365.95 347.96,-370.1 355.25,-373.58"/>
<polygon fill="black" stroke="black" points="353.43,-376.61 364,-377.32 356.18,-370.17 353.43,-376.61"/>
</g>
<!-- n_b50cbd9bfaf166dd0c66421cd45e764e88a4a4c8 -->
<g id="node3" class="node">
<title>n_b50cbd9bfaf166dd0c66421cd45e764e88a4a4c8</title>
<path fill="none" stroke="black" d="M621.5,-96C621.5,-96 346.75,-96 346.75,-96 340.75,-96 334.75,-90 334.75,-84 334.75,-84 334.75,-72 334.75,-72 334.75,-66 340.75,-60 346.75,-60 346.75,-60 621.5,-60 621.5,-60 627.5,-60 633.5,-66 633.5,-72 633.5,-72 633.5,-84 633.5,-84 633.5,-90 627.5,-96 621.5,-96"/>
<text xml:space="preserve" text-anchor="middle" x="484.12" y="-74.5" font-family="Arial" font-size="10.00">tools/codex/worktrees/C_features/packages/contracts/src/fixtu...</text>
</g>
<!-- n_b50cbd9bfaf166dd0c66421cd45e764e88a4a4c8&#45;&gt;n_190947ef9058845ee9791eefa8e223f8d558bb35 -->
<g id="edge10" class="edge">
<title>n_b50cbd9bfaf166dd0c66421cd45e764e88a4a4c8&#45;&gt;n_190947ef9058845ee9791eefa8e223f8d558bb35</title>
<path fill="none" stroke="black" d="M612.54,-96.43C619.85,-99.45 626.9,-102.95 633.5,-107 655.63,-120.57 647.34,-139.48 669.5,-153 676.99,-157.57 685.09,-161.39 693.48,-164.59"/>
<polygon fill="black" stroke="black" points="692.23,-167.86 702.82,-167.82 694.51,-161.25 692.23,-167.86"/>
</g>
<!-- n_31520992be4ab170a539067833d241f78a617aa7 -->
<g id="node12" class="node">
<title>n_31520992be4ab170a539067833d241f78a617aa7</title>
<ellipse fill="none" stroke="black" cx="811.72" cy="-72" rx="140.86" ry="18"/>
<text xml:space="preserve" text-anchor="middle" x="811.72" y="-68.5" font-family="Arial" font-size="10.00">n_31520992be4ab170a539067833d241f78a617aa7</text>
</g>
<!-- n_b50cbd9bfaf166dd0c66421cd45e764e88a4a4c8&#45;&gt;n_31520992be4ab170a539067833d241f78a617aa7 -->
<g id="edge9" class="edge">
<title>n_b50cbd9bfaf166dd0c66421cd45e764e88a4a4c8&#45;&gt;n_31520992be4ab170a539067833d241f78a617aa7</title>
<path fill="none" stroke="black" d="M633.63,-75.26C642.59,-75.1 651.61,-74.93 660.58,-74.77"/>
<polygon fill="black" stroke="black" points="660.46,-78.27 670.39,-74.59 660.33,-71.27 660.46,-78.27"/>
</g>
<!-- n_112c8a1c38eb590bb985cdf2ba40cddf2643d1a8 -->
<g id="node4" class="node">
<title>n_112c8a1c38eb590bb985cdf2ba40cddf2643d1a8</title>
<path fill="none" stroke="black" d="M621.5,-38C621.5,-38 346.75,-38 346.75,-38 340.75,-38 334.75,-32 334.75,-26 334.75,-26 334.75,-14 334.75,-14 334.75,-8 340.75,-2 346.75,-2 346.75,-2 621.5,-2 621.5,-2 627.5,-2 633.5,-8 633.5,-14 633.5,-14 633.5,-26 633.5,-26 633.5,-32 627.5,-38 621.5,-38"/>
<text xml:space="preserve" text-anchor="middle" x="484.12" y="-16.5" font-family="Arial" font-size="10.00">tools/codex/worktrees/C_features/packages/contracts/src/fixtu...</text>
</g>
<!-- n_112c8a1c38eb590bb985cdf2ba40cddf2643d1a8&#45;&gt;n_190947ef9058845ee9791eefa8e223f8d558bb35 -->
<g id="edge12" class="edge">
<title>n_112c8a1c38eb590bb985cdf2ba40cddf2643d1a8&#45;&gt;n_190947ef9058845ee9791eefa8e223f8d558bb35</title>
<path fill="none" stroke="black" d="M615.37,-38.42C621.85,-41.99 627.95,-46.15 633.5,-51 669.68,-82.65 633.05,-121.66 669.5,-153 674.9,-157.65 680.86,-161.59 687.17,-164.93"/>
<polygon fill="black" stroke="black" points="685.45,-167.99 695.99,-169.07 688.42,-161.66 685.45,-167.99"/>
</g>
<!-- n_75387087111d1c66daae93cf3aa51b2ebc584b2b -->
<g id="node13" class="node">
<title>n_75387087111d1c66daae93cf3aa51b2ebc584b2b</title>
<ellipse fill="none" stroke="black" cx="811.72" cy="-18" rx="139.96" ry="18"/>
<text xml:space="preserve" text-anchor="middle" x="811.72" y="-14.5" font-family="Arial" font-size="10.00">n_75387087111d1c66daae93cf3aa51b2ebc584b2b</text>
</g>
<!-- n_112c8a1c38eb590bb985cdf2ba40cddf2643d1a8&#45;&gt;n_75387087111d1c66daae93cf3aa51b2ebc584b2b -->
<g id="edge11" class="edge">
<title>n_112c8a1c38eb590bb985cdf2ba40cddf2643d1a8&#45;&gt;n_75387087111d1c66daae93cf3aa51b2ebc584b2b</title>
<path fill="none" stroke="black" d="M633.63,-19.09C642.38,-19.03 651.18,-18.98 659.93,-18.93"/>
<polygon fill="black" stroke="black" points="659.91,-22.43 669.89,-18.87 659.87,-15.43 659.91,-22.43"/>
</g>
<!-- n_d9c6252f4d4a354e8cf191e777bec71fe7e6e157 -->
<g id="node5" class="node">
<title>n_d9c6252f4d4a354e8cf191e777bec71fe7e6e157</title>
<path fill="none" stroke="black" d="M286.75,-325C286.75,-325 12,-325 12,-325 6,-325 0,-319 0,-313 0,-313 0,-301 0,-301 0,-295 6,-289 12,-289 12,-289 286.75,-289 286.75,-289 292.75,-289 298.75,-295 298.75,-301 298.75,-301 298.75,-313 298.75,-313 298.75,-319 292.75,-325 286.75,-325"/>
<text xml:space="preserve" text-anchor="middle" x="149.38" y="-303.5" font-family="Arial" font-size="10.00">tools/codex/worktrees/C_features/packages/contracts/src/fixtu...</text>
</g>
<!-- n_cd666995aac66537de698203fb3f00e5ce0eb114&#45;&gt;n_190947ef9058845ee9791eefa8e223f8d558bb35 -->
<g id="edge14" class="edge">
<title>n_cd666995aac66537de698203fb3f00e5ce0eb114&#45;&gt;n_190947ef9058845ee9791eefa8e223f8d558bb35</title>
<path fill="none" stroke="black" d="M616.95,-261.51C622.68,-259.01 628.23,-256.18 633.5,-253 655.72,-239.58 647.34,-220.52 669.5,-207 676.99,-202.43 685.09,-198.61 693.48,-195.41"/>
<polygon fill="black" stroke="black" points="694.51,-198.75 702.82,-192.18 692.23,-192.14 694.51,-198.75"/>
</g>
<!-- n_b010c18f0a108ef2e50f5827b24740301a07d319 -->
<g id="node14" class="node">
<title>n_b010c18f0a108ef2e50f5827b24740301a07d319</title>
<ellipse fill="none" stroke="black" cx="811.72" cy="-288" rx="138.16" ry="18"/>
<text xml:space="preserve" text-anchor="middle" x="811.72" y="-284.5" font-family="Arial" font-size="10.00">n_b010c18f0a108ef2e50f5827b24740301a07d319</text>
</g>
<!-- n_cd666995aac66537de698203fb3f00e5ce0eb114&#45;&gt;n_b010c18f0a108ef2e50f5827b24740301a07d319 -->
<g id="edge13" class="edge">
<title>n_cd666995aac66537de698203fb3f00e5ce0eb114&#45;&gt;n_b010c18f0a108ef2e50f5827b24740301a07d319</title>
<path fill="none" stroke="black" d="M633.63,-283.65C643.74,-283.9 653.93,-284.15 664.04,-284.4"/>
<polygon fill="black" stroke="black" points="663.8,-287.89 673.89,-284.64 663.98,-280.89 663.8,-287.89"/>
</g>
<!-- n_cb3bbf216c9ebb6532da1b18ff7fdd0617d71c76&#45;&gt;n_190947ef9058845ee9791eefa8e223f8d558bb35 -->
<g id="edge16" class="edge">
<title>n_cb3bbf216c9ebb6532da1b18ff7fdd0617d71c76&#45;&gt;n_190947ef9058845ee9791eefa8e223f8d558bb35</title>
<path fill="none" stroke="black" d="M615.68,-207.56C645.35,-203.36 676.52,-198.96 705.01,-194.93"/>
<polygon fill="black" stroke="black" points="705.3,-198.43 714.71,-193.56 704.32,-191.5 705.3,-198.43"/>
</g>
<!-- n_86c4066bb3797f3d6a1402519973cda8406073e5 -->
<g id="node15" class="node">
<title>n_86c4066bb3797f3d6a1402519973cda8406073e5</title>
<ellipse fill="none" stroke="black" cx="811.72" cy="-234" rx="140.86" ry="18"/>
<text xml:space="preserve" text-anchor="middle" x="811.72" y="-230.5" font-family="Arial" font-size="10.00">n_86c4066bb3797f3d6a1402519973cda8406073e5</text>
</g>
<!-- n_cb3bbf216c9ebb6532da1b18ff7fdd0617d71c76&#45;&gt;n_86c4066bb3797f3d6a1402519973cda8406073e5 -->
<g id="edge15" class="edge">
<title>n_cb3bbf216c9ebb6532da1b18ff7fdd0617d71c76&#45;&gt;n_86c4066bb3797f3d6a1402519973cda8406073e5</title>
<path fill="none" stroke="black" d="M633.63,-229.65C642.93,-229.88 652.29,-230.11 661.6,-230.34"/>
<polygon fill="black" stroke="black" points="661.31,-233.83 671.39,-230.58 661.48,-226.83 661.31,-233.83"/>
</g>
<!-- n_83c25d7e51e89c2bc7f554b1788c1effe6bf16fd&#45;&gt;n_190947ef9058845ee9791eefa8e223f8d558bb35 -->
<g id="edge18" class="edge">
<title>n_83c25d7e51e89c2bc7f554b1788c1effe6bf16fd&#45;&gt;n_190947ef9058845ee9791eefa8e223f8d558bb35</title>
<path fill="none" stroke="black" d="M615.68,-152.44C645.35,-156.64 676.52,-161.04 705.01,-165.07"/>
<polygon fill="black" stroke="black" points="704.32,-168.5 714.71,-166.44 705.3,-161.57 704.32,-168.5"/>
</g>
<!-- n_eb823334350266923be86b77d3ffc52440d3681a -->
<g id="node16" class="node">
<title>n_eb823334350266923be86b77d3ffc52440d3681a</title>
<ellipse fill="none" stroke="black" cx="811.72" cy="-126" rx="139.06" ry="18"/>
<text xml:space="preserve" text-anchor="middle" x="811.72" y="-122.5" font-family="Arial" font-size="10.00">n_eb823334350266923be86b77d3ffc52440d3681a</text>
</g>
<!-- n_83c25d7e51e89c2bc7f554b1788c1effe6bf16fd&#45;&gt;n_eb823334350266923be86b77d3ffc52440d3681a -->
<g id="edge17" class="edge">
<title>n_83c25d7e51e89c2bc7f554b1788c1effe6bf16fd&#45;&gt;n_eb823334350266923be86b77d3ffc52440d3681a</title>
<path fill="none" stroke="black" d="M633.63,-130.35C643.62,-130.11 653.69,-129.86 663.67,-129.61"/>
<polygon fill="black" stroke="black" points="663.48,-133.12 673.39,-129.37 663.31,-126.12 663.48,-133.12"/>
</g>
</g>
</svg>
