<?xml version="1.0" encoding="UTF-8" standalone="no"?>
<!DOCTYPE svg PUBLIC "-//W3C//DTD SVG 1.1//EN"
 "http://www.w3.org/Graphics/SVG/1.1/DTD/svg11.dtd">
<!-- Generated by graphviz version 14.1.3 (20260303.0454)
 -->
<!-- Title: folder_344 Pages: 1 -->
<svg width="710pt" height="73pt"
 viewBox="0.00 0.00 710.00 73.00" xmlns="http://www.w3.org/2000/svg" xmlns:xlink="http://www.w3.org/1999/xlink">
<g id="graph0" class="graph" transform="scale(1 1) rotate(0) translate(4 69)">
<title>folder_344</title>
<polygon fill="white" stroke="none" points="-4,4 -4,-69 706.25,-69 706.25,4 -4,4"/>
<text xml:space="preserve" text-anchor="middle" x="351.12" y="-43.9" font-family="Times New Roman,serif" font-size="18.00">344 | tools/codex/runs/20260304_174651_DBC8/Z_aggregator/FILES/apps/keystone/lib/pitch</text>
<!-- n_12a2f21e9d14d9146154e9982dca59ab44b529a5 -->
<g id="node1" class="node">
<title>n_12a2f21e9d14d9146154e9982dca59ab44b529a5</title>
<path fill="none" stroke="black" d="M502,-36C502,-36 200.25,-36 200.25,-36 194.25,-36 188.25,-30 188.25,-24 188.25,-24 188.25,-12 188.25,-12 188.25,-6 194.25,0 200.25,0 200.25,0 502,0 502,0 508,0 514,-6 514,-12 514,-12 514,-24 514,-24 514,-30 508,-36 502,-36"/>
<text xml:space="preserve" text-anchor="middle" x="351.12" y="-14.5" font-family="Arial" font-size="10.00">tools/codex/runs/20260304_174651_DBC8/Z_aggregator/FILES/apps...</text>
</g>
</g>
</svg>
