<svg xmlns="http://www.w3.org/2000/svg" width="1280" height="640" viewBox="0 0 1280 640" role="img" aria-label="PRISMA by HITECH social preview">
<defs>
  <linearGradient id="bg" x1="0" y1="0" x2="1" y2="1"><stop stop-color="#0B0E13"/><stop offset="1" stop-color="#121A26"/></linearGradient>
  <linearGradient id="a" x1="0" y1="0" x2="1" y2="1"><stop stop-color="#B9F36B"/><stop offset="1" stop-color="#77D957"/></linearGradient>
  <radialGradient id="r" cx="80%" cy="25%" r="70%"><stop stop-color="#B9F36B" stop-opacity=".22"/><stop offset="1" stop-color="#B9F36B" stop-opacity="0"/></radialGradient>
</defs>
<rect width="1280" height="640" fill="url(#bg)"/>
<circle cx="1030" cy="160" r="380" fill="url(#r)"/>
<g transform="translate(92 92)">
 <rect width="140" height="140" rx="32" fill="#0E131A" stroke="#2A3646" stroke-width="2"/>
 <path d="M24 28h92v24H24zM24 52h25v64H24zM91 52h25v64H91z" fill="url(#a)"/>
 <path d="M49 52h42v23H49zM59 75h23v28H59zM49 103h33v13H49z" fill="#F7F8FA"/>
</g>
<text x="270" y="145" fill="#F7F8FA" font-family="Inter, Segoe UI, Arial, sans-serif" font-size="64" font-weight="760" letter-spacing="-2">PRISMA by HITECH</text>
<text x="92" y="315" fill="#F7F8FA" font-family="Inter, Segoe UI, Arial, sans-serif" font-size="48" font-weight="690">Operational software for real business.</text>
<text x="92" y="380" fill="#AAB2BF" font-family="Inter, Segoe UI, Arial, sans-serif" font-size="31" font-weight="520">Commerce · Operations · Intelligence · Governed software change</text>
<rect x="92" y="465" width="1096" height="1" fill="#2A3646"/>
<text x="92" y="535" fill="#B9F36B" font-family="Inter, Segoe UI, Arial, sans-serif" font-size="28" font-weight="700">NO EVIDENCE. NO GREEN.</text>
<text x="1188" y="535" text-anchor="end" fill="#C9D0DA" font-family="Inter, Segoe UI, Arial, sans-serif" font-size="22" font-weight="600">BUILT IN MEXICO</text>
</svg>