<?xml version="1.0" encoding="UTF-8" standalone="no"?>
<!DOCTYPE svg PUBLIC "-//W3C//DTD SVG 1.1//EN"
 "http://www.w3.org/Graphics/SVG/1.1/DTD/svg11.dtd">
<!-- Generated by graphviz version 14.1.3 (20260303.0454)
 -->
<!-- Title: folder_368 Pages: 1 -->
<svg width="741pt" height="73pt"
 viewBox="0.00 0.00 741.00 73.00" xmlns="http://www.w3.org/2000/svg" xmlns:xlink="http://www.w3.org/1999/xlink">
<g id="graph0" class="graph" transform="scale(1 1) rotate(0) translate(4 69)">
<title>folder_368</title>
<polygon fill="white" stroke="none" points="-4,4 -4,-69 737,-69 737,4 -4,4"/>
<text xml:space="preserve" text-anchor="middle" x="366.5" y="-43.9" font-family="Times New Roman,serif" font-size="18.00">368 | tools/codex/runs/20260305_092736_F9A0/C_features/FILES/packages/ui&#45;kit/src/kpi/scoring</text>
<!-- n_f242a34142f44b4231b83b4427cf1e996a06a061 -->
<g id="node1" class="node">
<title>n_f242a34142f44b4231b83b4427cf1e996a06a061</title>
<path fill="none" stroke="black" d="M516.25,-36C516.25,-36 216.75,-36 216.75,-36 210.75,-36 204.75,-30 204.75,-24 204.75,-24 204.75,-12 204.75,-12 204.75,-6 210.75,0 216.75,0 216.75,0 516.25,0 516.25,0 522.25,0 528.25,-6 528.25,-12 528.25,-12 528.25,-24 528.25,-24 528.25,-30 522.25,-36 516.25,-36"/>
<text xml:space="preserve" text-anchor="middle" x="366.5" y="-14.5" font-family="Arial" font-size="10.00">tools/codex/runs/20260305_092736_F9A0/C_features/FILES/packag...</text>
</g>
</g>
</svg>
