<?xml version="1.0" encoding="UTF-8" standalone="no"?>
<!DOCTYPE svg PUBLIC "-//W3C//DTD SVG 1.1//EN"
 "http://www.w3.org/Graphics/SVG/1.1/DTD/svg11.dtd">
<!-- Generated by graphviz version 14.1.3 (20260303.0454)
 -->
<!-- Title: folder_501 Pages: 1 -->
<svg width="467pt" height="73pt"
 viewBox="0.00 0.00 467.00 73.00" xmlns="http://www.w3.org/2000/svg" xmlns:xlink="http://www.w3.org/1999/xlink">
<g id="graph0" class="graph" transform="scale(1 1) rotate(0) translate(4 69)">
<title>folder_501</title>
<polygon fill="white" stroke="none" points="-4,4 -4,-69 463.25,-69 463.25,4 -4,4"/>
<text xml:space="preserve" text-anchor="middle" x="229.62" y="-43.9" font-family="Times New Roman,serif" font-size="18.00">501 | tools/codex/worktrees/B_tooling/apps/demo&#45;engine/src</text>
<!-- n_2feea26f9e9e9a32b9e8e178735834a0447bb7a8 -->
<g id="node1" class="node">
<title>n_2feea26f9e9e9a32b9e8e178735834a0447bb7a8</title>
<path fill="none" stroke="black" d="M367.38,-36C367.38,-36 91.88,-36 91.88,-36 85.88,-36 79.88,-30 79.88,-24 79.88,-24 79.88,-12 79.88,-12 79.88,-6 85.88,0 91.88,0 91.88,0 367.38,0 367.38,0 373.38,0 379.38,-6 379.38,-12 379.38,-12 379.38,-24 379.38,-24 379.38,-30 373.38,-36 367.38,-36"/>
<text xml:space="preserve" text-anchor="middle" x="229.62" y="-14.5" font-family="Arial" font-size="10.00">tools/codex/worktrees/B_tooling/apps/demo&#45;engine/src/index.mjs</text>
</g>
</g>
</svg>
