<?xml version="1.0" encoding="UTF-8" standalone="no"?>
<!DOCTYPE svg PUBLIC "-//W3C//DTD SVG 1.1//EN"
 "http://www.w3.org/Graphics/SVG/1.1/DTD/svg11.dtd">
<!-- Generated by graphviz version 14.1.3 (20260303.0454)
 -->
<!-- Title: folder_755 Pages: 1 -->
<svg width="932pt" height="343pt"
 viewBox="0.00 0.00 932.00 343.00" xmlns="http://www.w3.org/2000/svg" xmlns:xlink="http://www.w3.org/1999/xlink">
<g id="graph0" class="graph" transform="scale(1 1) rotate(0) translate(4 339)">
<title>folder_755</title>
<polygon fill="white" stroke="none" points="-4,4 -4,-339 928.25,-339 928.25,4 -4,4"/>
<text xml:space="preserve" text-anchor="middle" x="462.12" y="-313.9" font-family="Times New Roman,serif" font-size="18.00">755 | tools/codex/worktrees/C_features/tools/codex/runs/20260305_092736_F9A0/C_features/FILES/packages/ui&#45;kit/src/kpi</text>
<!-- n_cbe37336eecfa619860498ee75c76a65174bb6d1 -->
<g id="node1" class="node">
<title>n_cbe37336eecfa619860498ee75c76a65174bb6d1</title>
<path fill="none" stroke="black" d="M432.12,-117C432.12,-117 148.38,-117 148.38,-117 142.38,-117 136.38,-111 136.38,-105 136.38,-105 136.38,-93 136.38,-93 136.38,-87 142.38,-81 148.38,-81 148.38,-81 432.12,-81 432.12,-81 438.12,-81 444.12,-87 444.12,-93 444.12,-93 444.12,-105 444.12,-105 444.12,-111 438.12,-117 432.12,-117"/>
<text xml:space="preserve" text-anchor="middle" x="290.25" y="-95.5" font-family="Arial" font-size="10.00">tools/codex/worktrees/C_features/tools/codex/runs/20260305_09...</text>
</g>
<!-- n_dd2974b89f793b068b2d65122a53b5f533ea5502 -->
<g id="node2" class="node">
<title>n_dd2974b89f793b068b2d65122a53b5f533ea5502</title>
<path fill="none" stroke="black" d="M432.12,-171C432.12,-171 148.38,-171 148.38,-171 142.38,-171 136.38,-165 136.38,-159 136.38,-159 136.38,-147 136.38,-147 136.38,-141 142.38,-135 148.38,-135 148.38,-135 432.12,-135 432.12,-135 438.12,-135 444.12,-141 444.12,-147 444.12,-147 444.12,-159 444.12,-159 444.12,-165 438.12,-171 432.12,-171"/>
<text xml:space="preserve" text-anchor="middle" x="290.25" y="-149.5" font-family="Arial" font-size="10.00">tools/codex/worktrees/C_features/tools/codex/runs/20260305_09...</text>
</g>
<!-- n_790bb6f8979c859b53a465d9c3a3b7434383d9a7 -->
<g id="node3" class="node">
<title>n_790bb6f8979c859b53a465d9c3a3b7434383d9a7</title>
<path fill="none" stroke="black" d="M775.88,-306C775.88,-306 492.12,-306 492.12,-306 486.12,-306 480.12,-300 480.12,-294 480.12,-294 480.12,-282 480.12,-282 480.12,-276 486.12,-270 492.12,-270 492.12,-270 775.88,-270 775.88,-270 781.88,-270 787.88,-276 787.88,-282 787.88,-282 787.88,-294 787.88,-294 787.88,-300 781.88,-306 775.88,-306"/>
<text xml:space="preserve" text-anchor="middle" x="634" y="-284.5" font-family="Arial" font-size="10.00">tools/codex/worktrees/C_features/tools/codex/runs/20260305_09...</text>
</g>
<!-- n_dd2974b89f793b068b2d65122a53b5f533ea5502&#45;&gt;n_790bb6f8979c859b53a465d9c3a3b7434383d9a7 -->
<g id="edge6" class="edge">
<title>n_dd2974b89f793b068b2d65122a53b5f533ea5502&#45;&gt;n_790bb6f8979c859b53a465d9c3a3b7434383d9a7</title>
<path fill="none" stroke="black" d="M316.74,-171.42C351.78,-195.82 417.61,-238.38 480.12,-261 485.53,-262.96 491.1,-264.77 496.76,-266.46"/>
<polygon fill="black" stroke="black" points="495.72,-269.8 506.29,-269.14 497.61,-263.06 495.72,-269.8"/>
</g>
<!-- n_dc722f222a014ebfac9827a954685a7ecb4adf59 -->
<g id="node4" class="node">
<title>n_dc722f222a014ebfac9827a954685a7ecb4adf59</title>
<ellipse fill="none" stroke="black" cx="634" cy="-234" rx="138.16" ry="18"/>
<text xml:space="preserve" text-anchor="middle" x="634" y="-230.5" font-family="Arial" font-size="10.00">n_dc722f222a014ebfac9827a954685a7ecb4adf59</text>
</g>
<!-- n_dd2974b89f793b068b2d65122a53b5f533ea5502&#45;&gt;n_dc722f222a014ebfac9827a954685a7ecb4adf59 -->
<g id="edge1" class="edge">
<title>n_dd2974b89f793b068b2d65122a53b5f533ea5502&#45;&gt;n_dc722f222a014ebfac9827a954685a7ecb4adf59</title>
<path fill="none" stroke="black" d="M349.97,-171.49C387.04,-182.74 436.09,-196.85 480.12,-207 497.12,-210.92 515.29,-214.58 532.95,-217.87"/>
<polygon fill="black" stroke="black" points="532.21,-221.29 542.68,-219.64 533.47,-214.4 532.21,-221.29"/>
</g>
<!-- n_0cc195ebfe3794e036b1336015d4002d847ce76a -->
<g id="node5" class="node">
<title>n_0cc195ebfe3794e036b1336015d4002d847ce76a</title>
<ellipse fill="none" stroke="black" cx="634" cy="-180" rx="140.86" ry="18"/>
<text xml:space="preserve" text-anchor="middle" x="634" y="-176.5" font-family="Arial" font-size="10.00">n_0cc195ebfe3794e036b1336015d4002d847ce76a</text>
</g>
<!-- n_dd2974b89f793b068b2d65122a53b5f533ea5502&#45;&gt;n_0cc195ebfe3794e036b1336015d4002d847ce76a -->
<g id="edge2" class="edge">
<title>n_dd2974b89f793b068b2d65122a53b5f533ea5502&#45;&gt;n_0cc195ebfe3794e036b1336015d4002d847ce76a</title>
<path fill="none" stroke="black" d="M444.13,-165.08C463.28,-166.59 482.74,-168.13 501.52,-169.61"/>
<polygon fill="black" stroke="black" points="501.05,-173.09 511.29,-170.38 501.6,-166.11 501.05,-173.09"/>
</g>
<!-- n_ed9100ab296c3151e2a93db0f2ebef6c57335c78 -->
<g id="node6" class="node">
<title>n_ed9100ab296c3151e2a93db0f2ebef6c57335c78</title>
<ellipse fill="none" stroke="black" cx="634" cy="-126" rx="139.51" ry="18"/>
<text xml:space="preserve" text-anchor="middle" x="634" y="-122.5" font-family="Arial" font-size="10.00">n_ed9100ab296c3151e2a93db0f2ebef6c57335c78</text>
</g>
<!-- n_dd2974b89f793b068b2d65122a53b5f533ea5502&#45;&gt;n_ed9100ab296c3151e2a93db0f2ebef6c57335c78 -->
<g id="edge3" class="edge">
<title>n_dd2974b89f793b068b2d65122a53b5f533ea5502&#45;&gt;n_ed9100ab296c3151e2a93db0f2ebef6c57335c78</title>
<path fill="none" stroke="black" d="M444.13,-140.92C463.5,-139.39 483.19,-137.84 502.17,-136.34"/>
<polygon fill="black" stroke="black" points="502.37,-139.83 512.06,-135.55 501.82,-132.85 502.37,-139.83"/>
</g>
<!-- n_b5ce5708edfa731952bcd9fca4bc5f39188d13c2 -->
<g id="node7" class="node">
<title>n_b5ce5708edfa731952bcd9fca4bc5f39188d13c2</title>
<ellipse fill="none" stroke="black" cx="634" cy="-72" rx="138.16" ry="18"/>
<text xml:space="preserve" text-anchor="middle" x="634" y="-68.5" font-family="Arial" font-size="10.00">n_b5ce5708edfa731952bcd9fca4bc5f39188d13c2</text>
</g>
<!-- n_dd2974b89f793b068b2d65122a53b5f533ea5502&#45;&gt;n_b5ce5708edfa731952bcd9fca4bc5f39188d13c2 -->
<g id="edge4" class="edge">
<title>n_dd2974b89f793b068b2d65122a53b5f533ea5502&#45;&gt;n_b5ce5708edfa731952bcd9fca4bc5f39188d13c2</title>
<path fill="none" stroke="black" d="M420.97,-134.55C428.93,-132.05 436.71,-129.22 444.12,-126 462.47,-118.04 461.78,-106.96 480.12,-99 491.7,-93.98 504.14,-89.9 516.76,-86.57"/>
<polygon fill="black" stroke="black" points="517.53,-89.99 526.41,-84.2 515.86,-83.19 517.53,-89.99"/>
</g>
<!-- n_d9cc1368cdbca0ee33a34c101f2fe7608a49a851 -->
<g id="node8" class="node">
<title>n_d9cc1368cdbca0ee33a34c101f2fe7608a49a851</title>
<ellipse fill="none" stroke="black" cx="634" cy="-18" rx="139.51" ry="18"/>
<text xml:space="preserve" text-anchor="middle" x="634" y="-14.5" font-family="Arial" font-size="10.00">n_d9cc1368cdbca0ee33a34c101f2fe7608a49a851</text>
</g>
<!-- n_dd2974b89f793b068b2d65122a53b5f533ea5502&#45;&gt;n_d9cc1368cdbca0ee33a34c101f2fe7608a49a851 -->
<g id="edge5" class="edge">
<title>n_dd2974b89f793b068b2d65122a53b5f533ea5502&#45;&gt;n_d9cc1368cdbca0ee33a34c101f2fe7608a49a851</title>
<path fill="none" stroke="black" d="M431.35,-134.54C435.81,-131.99 440.09,-129.15 444.12,-126 475.16,-101.73 449.09,-69.27 480.12,-45 487.07,-39.57 494.73,-35.09 502.81,-31.4"/>
<polygon fill="black" stroke="black" points="503.92,-34.73 511.86,-27.71 501.28,-28.25 503.92,-34.73"/>
</g>
</g>
</svg>
